<svg version="1.1" id="Layer_1" xmlns="http://www.w3.org/2000/svg" xmlns:xlink="http://www.w3.org/1999/xlink" x="0px" y="0px"
	 width="100%" viewBox="0 0 1967 1967" enable-background="new 0 0 1967 1967" xml:space="preserve">
<path fill="#FFFFFF" opacity="1.000000" stroke="none" 
	d="
M1968.000000,1026.000000 
	C1968.000000,1339.932251 1968.000000,1653.864380 1968.000000,1968.000000 
	C1653.302490,1968.000000 1338.604858,1968.000000 1023.694641,1967.651367 
	C1069.635742,1965.387207 1115.445190,1960.432983 1160.916382,1952.206665 
	C1255.542236,1935.087769 1346.025391,1905.318481 1431.213257,1860.801758 
	C1657.089722,1742.765747 1816.078125,1564.641968 1906.889404,1326.367188 
	C1941.203979,1236.330811 1960.248901,1142.791748 1966.159668,1046.598511 
	C1966.582397,1039.720703 1967.377930,1032.865601 1968.000000,1026.000000 
z"/>
<path fill="#FFFFFF" opacity="1.000000" stroke="none" 
	d="
M1025.000000,0.999999 
	C1339.265503,1.000000 1653.530884,1.000000 1968.000000,1.000000 
	C1968.000000,315.697571 1968.000000,630.395142 1967.651367,945.305298 
	C1967.242065,945.023315 1967.144287,944.530090 1967.126099,944.034058 
	C1964.650391,876.736511 1955.254272,810.383850 1938.711914,745.140564 
	C1894.710083,571.595825 1809.889038,420.800293 1684.209229,293.359283 
	C1572.793091,180.381851 1441.401489,99.124397 1290.618042,49.491184 
	C1211.313843,23.386677 1129.932129,7.919745 1046.580322,2.854805 
	C1039.375854,2.417020 1032.192993,1.626608 1025.000000,0.999999 
z"/>
<path fill="#FFFFFF" opacity="1.000000" stroke="none" 
	d="
M946.000000,1968.000000 
	C631.067993,1968.000000 316.136017,1968.000000 1.000000,1968.000000 
	C1.000000,1654.302490 1.000000,1340.604858 1.353117,1026.689453 
	C3.549785,1068.113403 7.863161,1109.486328 14.852256,1150.590088 
	C30.374531,1241.878174 57.782566,1329.449219 98.741112,1412.474121 
	C203.519012,1624.863770 363.480621,1781.182251 578.520752,1880.441772 
	C688.181519,1931.059448 803.814575,1958.925537 924.399292,1966.161011 
	C931.610352,1966.593506 938.800232,1967.378906 946.000000,1968.000000 
z"/>
<path fill="#FFFFFF" opacity="1.000000" stroke="none" 
	d="
M1.000000,943.000000 
	C1.000000,629.067871 1.000000,315.135803 1.000000,1.000000 
	C315.030884,1.000000 629.061829,1.000000 943.289673,1.339908 
	C884.940979,4.075265 827.004028,11.370690 769.866699,24.326710 
	C586.530762,65.898499 427.572388,152.566757 293.663300,284.383881 
	C178.833313,397.419952 96.843979,531.069275 47.445316,684.518311 
	C22.534683,761.899170 7.757790,841.236816 2.839322,922.399353 
	C2.422467,929.278137 1.622163,936.133667 1.000000,943.000000 
z"/>
<path fill="#FE8F10" opacity="1.000000" stroke="none" 
	d="
M1.000000,943.468628 
	C1.622163,936.133667 2.422467,929.278137 2.839322,922.399353 
	C7.757790,841.236816 22.534683,761.899170 47.445316,684.518311 
	C96.843979,531.069275 178.833313,397.419952 293.663300,284.383881 
	C427.572388,152.566757 586.530762,65.898499 769.866699,24.326710 
	C827.004028,11.370690 884.940979,4.075265 943.743286,1.339908 
	C970.687561,1.000000 997.375183,1.000000 1024.531372,0.999999 
	C1032.192993,1.626608 1039.375854,2.417020 1046.580322,2.854805 
	C1129.932129,7.919745 1211.313843,23.386677 1290.618042,49.491184 
	C1441.401489,99.124397 1572.793091,180.381851 1684.209229,293.359283 
	C1809.889038,420.800293 1894.710083,571.595825 1938.711914,745.140564 
	C1955.254272,810.383850 1964.650391,876.736511 1967.126099,944.034058 
	C1967.144287,944.530090 1967.242065,945.023315 1967.651367,945.758911 
	C1968.000000,972.354248 1968.000000,998.708496 1968.000000,1025.531372 
	C1967.377930,1032.865601 1966.582397,1039.720703 1966.159668,1046.598511 
	C1960.248901,1142.791748 1941.203979,1236.330811 1906.889404,1326.367188 
	C1816.078125,1564.641968 1657.089722,1742.765747 1431.213257,1860.801758 
	C1346.025391,1905.318481 1255.542236,1935.087769 1160.916382,1952.206665 
	C1115.445190,1960.432983 1069.635742,1965.387207 1023.240967,1967.651367 
	C997.645752,1968.000000 972.291565,1968.000000 946.468628,1968.000000 
	C938.800232,1967.378906 931.610352,1966.593506 924.399292,1966.161011 
	C803.814575,1958.925537 688.181519,1931.059448 578.520752,1880.441772 
	C363.480621,1781.182251 203.519012,1624.863770 98.741112,1412.474121 
	C57.782566,1329.449219 30.374531,1241.878174 14.852256,1150.590088 
	C7.863161,1109.486328 3.549785,1068.113403 1.353117,1026.235840 
	C1.000000,998.645752 1.000000,971.291565 1.000000,943.468628 
M901.089050,1962.319702 
	C920.323242,1963.517090 939.550964,1965.564331 958.793091,1965.708740 
	C986.235596,1965.914917 1013.718872,1965.328613 1041.127930,1963.950439 
	C1064.822876,1962.759033 1088.611694,1961.148315 1112.047852,1957.642700 
	C1145.331055,1952.664062 1178.584961,1946.907349 1211.394653,1939.468384 
	C1276.131592,1924.790161 1338.515625,1902.788940 1398.625122,1874.603027 
	C1446.927002,1851.953735 1493.231079,1825.748169 1537.311279,1795.591431 
	C1578.730591,1767.255005 1618.143555,1736.375244 1654.348633,1701.697510 
	C1678.615479,1678.454346 1701.731567,1653.931885 1724.332397,1629.046265 
	C1755.023682,1595.252075 1782.008057,1558.506470 1806.951782,1520.270142 
	C1828.436035,1487.336914 1847.764404,1453.203247 1865.219238,1417.960449 
	C1888.236572,1371.486206 1907.784424,1323.612549 1922.400879,1273.887085 
	C1931.291138,1243.642090 1938.914917,1212.977539 1945.851196,1182.218140 
	C1953.446533,1148.535400 1958.496704,1114.354492 1961.130981,1079.887451 
	C1962.953491,1056.040771 1965.064453,1032.182495 1965.767944,1008.291687 
	C1966.860229,971.192810 1966.024048,934.080261 1962.048462,897.130371 
	C1959.688354,875.196045 1957.216187,853.257812 1954.045654,831.430115 
	C1947.253662,784.670776 1936.298584,738.815063 1922.312134,693.710083 
	C1902.886597,631.064514 1877.476685,570.932312 1845.855469,513.430725 
	C1816.023682,459.182892 1781.570068,408.103638 1742.093506,360.394470 
	C1712.975220,325.203491 1682.120972,291.635986 1647.876465,261.394745 
	C1624.700317,240.928085 1601.219727,220.707382 1576.780396,201.791122 
	C1531.276855,166.571030 1482.448486,136.383911 1431.221558,110.164581 
	C1393.856689,91.040176 1355.395630,74.404823 1315.852905,60.267662 
	C1275.420654,45.812489 1234.252563,33.963120 1192.270020,24.982706 
	C1155.728394,17.166176 1118.930298,10.865888 1081.648438,7.877721 
	C1058.472900,6.020181 1035.279785,3.907441 1012.056152,3.233707 
	C973.624207,2.118770 935.182983,2.947199 896.893738,6.951347 
	C875.935730,9.143059 854.839539,10.735101 834.131470,14.425645 
	C802.294678,20.099508 770.526611,26.475649 739.107605,34.110233 
	C676.356323,49.358307 616.169495,72.033981 558.033142,100.066742 
	C510.568848,122.953522 465.301056,149.628113 422.095245,179.836899 
	C377.670807,210.897720 335.945465,245.246185 297.515686,283.406372 
	C276.397369,304.376556 255.915527,326.147980 236.841949,348.974731 
	C215.221893,374.849030 194.581009,401.661194 175.150253,429.219025 
	C139.860214,479.269409 110.593452,532.832214 85.876228,588.902649 
	C64.022591,638.477234 46.408585,689.493469 33.069733,741.962585 
	C20.948290,789.642944 12.039683,837.938171 7.925138,887.010559 
	C5.927113,910.840210 3.692033,934.715210 3.305000,958.597839 
	C2.846971,986.861511 3.687135,1015.183838 5.060178,1043.427490 
	C6.123018,1065.290039 7.943693,1087.205566 11.090632,1108.855835 
	C15.669965,1140.360596 20.474201,1171.932495 27.427505,1202.973022 
	C45.875553,1285.327637 74.865601,1363.944580 114.170853,1438.728516 
	C139.547897,1487.012085 168.583466,1532.907104 201.468857,1576.432739 
	C228.099686,1611.680054 256.847168,1645.092896 288.124908,1676.219360 
	C307.335999,1695.337646 327.616180,1713.415039 347.905243,1731.408569 
	C375.319855,1755.721313 404.768494,1777.472900 435.094574,1797.995361 
	C485.814087,1832.318726 539.285400,1861.661499 595.549072,1885.902832 
	C639.912354,1905.016724 685.264832,1921.379883 732.141907,1933.037354 
	C762.077026,1940.481934 792.271423,1947.151123 822.645508,1952.481323 
	C848.266052,1956.977417 874.312988,1959.043701 901.089050,1962.319702 
z"/>
<path fill="#FFFF00" opacity="1.000000" stroke="none" 
	d="
M900.630127,1962.252563 
	C874.312988,1959.043701 848.266052,1956.977417 822.645508,1952.481323 
	C792.271423,1947.151123 762.077026,1940.481934 732.141907,1933.037354 
	C685.264832,1921.379883 639.912354,1905.016724 595.549072,1885.902832 
	C539.285400,1861.661499 485.814087,1832.318726 435.094574,1797.995361 
	C404.768494,1777.472900 375.319855,1755.721313 347.905243,1731.408569 
	C327.616180,1713.415039 307.335999,1695.337646 288.124908,1676.219360 
	C256.847168,1645.092896 228.099686,1611.680054 201.468857,1576.432739 
	C168.583466,1532.907104 139.547897,1487.012085 114.170853,1438.728516 
	C74.865601,1363.944580 45.875553,1285.327637 27.427505,1202.973022 
	C20.474201,1171.932495 15.669965,1140.360596 11.090632,1108.855835 
	C7.943693,1087.205566 6.123018,1065.290039 5.060178,1043.427490 
	C3.687135,1015.183838 2.846971,986.861511 3.305000,958.597839 
	C3.692033,934.715210 5.927113,910.840210 7.925138,887.010559 
	C12.039683,837.938171 20.948290,789.642944 33.069733,741.962585 
	C46.408585,689.493469 64.022591,638.477234 85.876228,588.902649 
	C110.593452,532.832214 139.860214,479.269409 175.150253,429.219025 
	C194.581009,401.661194 215.221893,374.849030 236.841949,348.974731 
	C255.915527,326.147980 276.397369,304.376556 297.515686,283.406372 
	C335.945465,245.246185 377.670807,210.897720 422.095245,179.836899 
	C465.301056,149.628113 510.568848,122.953522 558.033142,100.066742 
	C616.169495,72.033981 676.356323,49.358307 739.107605,34.110233 
	C770.526611,26.475649 802.294678,20.099508 834.131470,14.425645 
	C854.839539,10.735101 875.935730,9.143059 896.893738,6.951347 
	C935.182983,2.947199 973.624207,2.118770 1012.056152,3.233707 
	C1035.279785,3.907441 1058.472900,6.020181 1081.648438,7.877721 
	C1118.930298,10.865888 1155.728394,17.166176 1192.270020,24.982706 
	C1234.252563,33.963120 1275.420654,45.812489 1315.852905,60.267662 
	C1355.395630,74.404823 1393.856689,91.040176 1431.221558,110.164581 
	C1482.448486,136.383911 1531.276855,166.571030 1576.780396,201.791122 
	C1601.219727,220.707382 1624.700317,240.928085 1647.876465,261.394745 
	C1682.120972,291.635986 1712.975220,325.203491 1742.093506,360.394470 
	C1781.570068,408.103638 1816.023682,459.182892 1845.855469,513.430725 
	C1877.476685,570.932312 1902.886597,631.064514 1922.312134,693.710083 
	C1936.298584,738.815063 1947.253662,784.670776 1954.045654,831.430115 
	C1957.216187,853.257812 1959.688354,875.196045 1962.048462,897.130371 
	C1966.024048,934.080261 1966.860229,971.192810 1965.767944,1008.291687 
	C1965.064453,1032.182495 1962.953491,1056.040771 1961.130981,1079.887451 
	C1958.496704,1114.354492 1953.446533,1148.535400 1945.851196,1182.218140 
	C1938.914917,1212.977539 1931.291138,1243.642090 1922.400879,1273.887085 
	C1907.784424,1323.612549 1888.236572,1371.486206 1865.219238,1417.960449 
	C1847.764404,1453.203247 1828.436035,1487.336914 1806.951782,1520.270142 
	C1782.008057,1558.506470 1755.023682,1595.252075 1724.332397,1629.046265 
	C1701.731567,1653.931885 1678.615479,1678.454346 1654.348633,1701.697510 
	C1618.143555,1736.375244 1578.730591,1767.255005 1537.311279,1795.591431 
	C1493.231079,1825.748169 1446.927002,1851.953735 1398.625122,1874.603027 
	C1338.515625,1902.788940 1276.131592,1924.790161 1211.394653,1939.468384 
	C1178.584961,1946.907349 1145.331055,1952.664062 1112.047852,1957.642700 
	C1088.611694,1961.148315 1064.822876,1962.759033 1041.127930,1963.950439 
	C1013.718872,1965.328613 986.235596,1965.914917 958.793091,1965.708740 
	C939.550964,1965.564331 920.323242,1963.517090 900.630127,1962.252563 
M748.076965,1489.500000 
	C748.076965,1440.841187 748.078064,1392.182373 748.075684,1343.523560 
	C748.075378,1336.669556 746.655029,1334.490601 739.990784,1333.130737 
	C724.984253,1330.068481 709.861206,1329.981812 694.815857,1332.763794 
	C687.077454,1334.194824 685.826721,1336.144653 685.826538,1343.886597 
	C685.824951,1406.543823 686.096313,1469.202759 685.685486,1531.857178 
	C685.532043,1555.254761 695.147949,1572.861572 713.639648,1586.248535 
	C729.242126,1597.543701 746.976868,1604.098145 765.387207,1609.003540 
	C810.818054,1621.108521 857.296814,1626.242432 904.058838,1628.739014 
	C987.048340,1633.170044 1069.906006,1631.856201 1152.457642,1621.114136 
	C1202.909912,1614.549072 1252.425171,1603.942017 1300.446289,1586.928467 
	C1339.366333,1573.139282 1376.488159,1555.843750 1408.942017,1529.778320 
	C1411.645752,1527.606812 1413.626587,1524.535034 1415.943237,1521.881470 
	C1412.470459,1519.577148 1409.011963,1517.250610 1405.509644,1514.992065 
	C1404.976318,1514.648315 1404.244629,1514.485352 1403.597412,1514.464111 
	C1391.161987,1514.053833 1378.720337,1513.333130 1366.292236,1513.514893 
	C1362.810791,1513.565796 1359.068481,1515.845337 1355.981567,1517.905518 
	C1351.863281,1520.653809 1348.444092,1524.429199 1344.420288,1527.343140 
	C1312.654297,1550.348389 1276.941528,1565.150024 1239.869385,1576.918457 
	C1147.562134,1606.221313 1052.664795,1615.179688 956.330383,1612.401123 
	C912.810669,1611.145874 869.587036,1607.249756 827.132263,1597.004028 
	C808.783081,1592.575806 790.939209,1586.870361 775.190186,1576.003174 
	C757.166748,1563.566284 747.647522,1546.693726 748.041748,1524.494263 
	C748.242920,1513.166138 748.076965,1501.831665 748.076965,1489.500000 
M814.154053,871.500000 
	C814.154053,949.315369 814.037964,1027.131104 814.279846,1104.945801 
	C814.315918,1116.551636 815.210938,1128.290283 817.128845,1139.729370 
	C822.923706,1174.291382 840.578491,1200.734985 872.114502,1217.288574 
	C886.767395,1224.979980 902.004089,1231.134399 918.064392,1234.954834 
	C979.241516,1249.508423 1040.675781,1249.696167 1101.629517,1234.785400 
	C1181.899292,1215.149170 1243.518921,1169.726929 1284.537842,1097.378906 
	C1289.046143,1089.427246 1287.162964,1083.099121 1279.090088,1078.708618 
	C1271.622314,1074.647339 1263.572876,1075.269653 1255.678711,1076.549561 
	C1249.708740,1077.517700 1248.307739,1083.174927 1246.105103,1087.787598 
	C1245.747314,1088.536499 1245.320312,1089.254150 1244.899658,1089.971069 
	C1214.748413,1141.356323 1170.693726,1176.434326 1116.186157,1198.938477 
	C1072.506104,1216.972412 1026.854614,1222.135498 980.046204,1217.748779 
	C955.026123,1215.404297 930.973999,1209.262817 908.358704,1197.867920 
	C883.234314,1185.208862 866.459045,1165.620239 860.075012,1138.259277 
	C857.001404,1125.085938 855.135437,1111.317505 855.068726,1097.806885 
	C854.634827,1009.995850 854.846069,922.181580 854.844727,834.368408 
	C854.844727,832.702271 854.909607,831.030884 854.802917,829.371033 
	C854.445374,823.811157 851.837158,819.318176 846.313293,818.427856 
	C839.530396,817.334839 832.434875,816.635193 825.662903,817.410645 
	C817.075928,818.393982 814.205872,822.714417 814.168518,831.509033 
	C814.113342,844.505798 814.154114,857.502991 814.154053,871.500000 
M1265.296021,770.091003 
	C1277.392334,771.224670 1289.466309,772.893311 1301.588745,773.397827 
	C1349.597656,775.395813 1396.333374,769.442932 1440.317261,748.849060 
	C1483.786743,728.495972 1517.942505,697.777771 1541.496216,655.722168 
	C1542.919189,653.181458 1544.067627,649.525024 1543.351929,646.939148 
	C1541.603027,640.620850 1535.730347,638.786987 1530.012085,638.241333 
	C1523.836304,637.652161 1517.137817,636.628418 1512.815186,643.140320 
	C1512.631226,643.417297 1512.438354,643.692810 1512.292847,643.990051 
	C1505.564941,657.722412 1496.560303,669.925842 1486.106567,680.932800 
	C1437.534912,732.074402 1377.356201,754.497864 1307.443359,752.362549 
	C1282.936401,751.614014 1259.192993,747.333008 1236.763550,736.894409 
	C1215.309814,726.910034 1200.317871,711.178040 1194.666260,687.987183 
	C1192.089111,677.412048 1190.581055,666.305969 1190.524780,655.430725 
	C1190.163574,585.778259 1190.340576,516.123047 1190.339966,446.468689 
	C1190.339966,444.802338 1190.386108,443.133850 1190.320312,441.469971 
	C1190.081055,435.432220 1187.919434,432.563843 1181.936768,431.501862 
	C1178.202271,430.838898 1174.309692,430.797485 1170.498047,430.889313 
	C1160.031616,431.141418 1157.283691,434.064728 1157.283325,444.510223 
	C1157.281372,516.330872 1157.223389,588.151611 1157.358521,659.971985 
	C1157.375122,668.771240 1157.829712,677.657776 1159.117188,686.350464 
	C1163.440186,715.537231 1177.958130,737.829956 1204.644043,751.526917 
	C1223.489258,761.199463 1243.598389,766.746155 1265.296021,770.091003 
M856.549316,709.051331 
	C873.579346,693.330322 887.672363,675.293213 899.020874,655.103149 
	C902.307312,649.256226 901.113953,644.614746 895.549194,641.074402 
	C885.364990,634.594788 873.065247,637.567444 867.337341,647.883545 
	C866.691467,649.046814 865.996277,650.183167 865.306213,651.321167 
	C842.966553,688.163208 810.881165,713.881714 772.298645,731.829407 
	C731.019470,751.031494 687.451477,755.968567 642.573181,750.667114 
	C622.086548,748.247070 602.517029,742.543274 584.574890,731.981567 
	C569.938477,723.365906 559.824402,711.035156 553.868896,695.164795 
	C548.754578,681.535950 547.371216,667.341492 547.361206,652.962280 
	C547.312866,583.802917 547.339722,514.643555 547.338196,445.484161 
	C547.338196,443.817810 547.363953,442.149750 547.300293,440.485443 
	C547.125549,435.914429 544.843872,432.766632 540.355408,431.980927 
	C536.127686,431.240906 531.773193,430.850555 527.483459,430.914124 
	C517.001587,431.069305 514.155701,434.104797 514.155396,444.419281 
	C514.153442,514.411926 514.127197,584.404541 514.191040,654.397095 
	C514.198486,662.552124 514.296753,670.745422 515.058594,678.854675 
	C518.235718,712.671509 533.382385,738.869629 565.190552,753.079529 
	C578.153442,758.870544 591.818542,763.723999 605.653564,766.810059 
	C647.769653,776.204529 690.301880,776.121643 732.733215,768.852905 
	C779.409668,760.856995 820.842224,741.592163 856.549316,709.051331 
z"/>
<path fill="#0B51A0" opacity="1.000000" stroke="none" 
	d="
M748.076965,1490.000000 
	C748.076965,1501.831665 748.242920,1513.166138 748.041748,1524.494263 
	C747.647522,1546.693726 757.166748,1563.566284 775.190186,1576.003174 
	C790.939209,1586.870361 808.783081,1592.575806 827.132263,1597.004028 
	C869.587036,1607.249756 912.810669,1611.145874 956.330383,1612.401123 
	C1052.664795,1615.179688 1147.562134,1606.221313 1239.869385,1576.918457 
	C1276.941528,1565.150024 1312.654297,1550.348389 1344.420288,1527.343140 
	C1348.444092,1524.429199 1351.863281,1520.653809 1355.981567,1517.905518 
	C1359.068481,1515.845337 1362.810791,1513.565796 1366.292236,1513.514893 
	C1378.720337,1513.333130 1391.161987,1514.053833 1403.597412,1514.464111 
	C1404.244629,1514.485352 1404.976318,1514.648315 1405.509644,1514.992065 
	C1409.011963,1517.250610 1412.470459,1519.577148 1415.943237,1521.881470 
	C1413.626587,1524.535034 1411.645752,1527.606812 1408.942017,1529.778320 
	C1376.488159,1555.843750 1339.366333,1573.139282 1300.446289,1586.928467 
	C1252.425171,1603.942017 1202.909912,1614.549072 1152.457642,1621.114136 
	C1069.906006,1631.856201 987.048340,1633.170044 904.058838,1628.739014 
	C857.296814,1626.242432 810.818054,1621.108521 765.387207,1609.003540 
	C746.976868,1604.098145 729.242126,1597.543701 713.639648,1586.248535 
	C695.147949,1572.861572 685.532043,1555.254761 685.685486,1531.857178 
	C686.096313,1469.202759 685.824951,1406.543823 685.826538,1343.886597 
	C685.826721,1336.144653 687.077454,1334.194824 694.815857,1332.763794 
	C709.861206,1329.981812 724.984253,1330.068481 739.990784,1333.130737 
	C746.655029,1334.490601 748.075378,1336.669556 748.075684,1343.523560 
	C748.078064,1392.182373 748.076965,1440.841187 748.076965,1490.000000 
z"/>
<path fill="#0C529F" opacity="1.000000" stroke="none" 
	d="
M814.154053,871.000000 
	C814.154114,857.502991 814.113342,844.505798 814.168518,831.509033 
	C814.205872,822.714417 817.075928,818.393982 825.662903,817.410645 
	C832.434875,816.635193 839.530396,817.334839 846.313293,818.427856 
	C851.837158,819.318176 854.445374,823.811157 854.802917,829.371033 
	C854.909607,831.030884 854.844727,832.702271 854.844727,834.368408 
	C854.846069,922.181580 854.634827,1009.995850 855.068726,1097.806885 
	C855.135437,1111.317505 857.001404,1125.085938 860.075012,1138.259277 
	C866.459045,1165.620239 883.234314,1185.208862 908.358704,1197.867920 
	C930.973999,1209.262817 955.026123,1215.404297 980.046204,1217.748779 
	C1026.854614,1222.135498 1072.506104,1216.972412 1116.186157,1198.938477 
	C1170.693726,1176.434326 1214.748413,1141.356323 1244.899658,1089.971069 
	C1245.320312,1089.254150 1245.747314,1088.536499 1246.105103,1087.787598 
	C1248.307739,1083.174927 1249.708740,1077.517700 1255.678711,1076.549561 
	C1263.572876,1075.269653 1271.622314,1074.647339 1279.090088,1078.708618 
	C1287.162964,1083.099121 1289.046143,1089.427246 1284.537842,1097.378906 
	C1243.518921,1169.726929 1181.899292,1215.149170 1101.629517,1234.785400 
	C1040.675781,1249.696167 979.241516,1249.508423 918.064392,1234.954834 
	C902.004089,1231.134399 886.767395,1224.979980 872.114502,1217.288574 
	C840.578491,1200.734985 822.923706,1174.291382 817.128845,1139.729370 
	C815.210938,1128.290283 814.315918,1116.551636 814.279846,1104.945801 
	C814.037964,1027.131104 814.154053,949.315369 814.154053,871.000000 
z"/>
<path fill="#0C529F" opacity="1.000000" stroke="none" 
	d="
M1264.858643,770.045898 
	C1243.598389,766.746155 1223.489258,761.199463 1204.644043,751.526917 
	C1177.958130,737.829956 1163.440186,715.537231 1159.117188,686.350464 
	C1157.829712,677.657776 1157.375122,668.771240 1157.358521,659.971985 
	C1157.223389,588.151611 1157.281372,516.330872 1157.283325,444.510223 
	C1157.283691,434.064728 1160.031616,431.141418 1170.498047,430.889313 
	C1174.309692,430.797485 1178.202271,430.838898 1181.936768,431.501862 
	C1187.919434,432.563843 1190.081055,435.432220 1190.320312,441.469971 
	C1190.386108,443.133850 1190.339966,444.802338 1190.339966,446.468689 
	C1190.340576,516.123047 1190.163574,585.778259 1190.524780,655.430725 
	C1190.581055,666.305969 1192.089111,677.412048 1194.666260,687.987183 
	C1200.317871,711.178040 1215.309814,726.910034 1236.763550,736.894409 
	C1259.192993,747.333008 1282.936401,751.614014 1307.443359,752.362549 
	C1377.356201,754.497864 1437.534912,732.074402 1486.106567,680.932800 
	C1496.560303,669.925842 1505.564941,657.722412 1512.292847,643.990051 
	C1512.438354,643.692810 1512.631226,643.417297 1512.815186,643.140320 
	C1517.137817,636.628418 1523.836304,637.652161 1530.012085,638.241333 
	C1535.730347,638.786987 1541.603027,640.620850 1543.351929,646.939148 
	C1544.067627,649.525024 1542.919189,653.181458 1541.496216,655.722168 
	C1517.942505,697.777771 1483.786743,728.495972 1440.317261,748.849060 
	C1396.333374,769.442932 1349.597656,775.395813 1301.588745,773.397827 
	C1289.466309,772.893311 1277.392334,771.224670 1264.858643,770.045898 
z"/>
<path fill="#0C52A0" opacity="1.000000" stroke="none" 
	d="
M856.290161,709.293030 
	C820.842224,741.592163 779.409668,760.856995 732.733215,768.852905 
	C690.301880,776.121643 647.769653,776.204529 605.653564,766.810059 
	C591.818542,763.723999 578.153442,758.870544 565.190552,753.079529 
	C533.382385,738.869629 518.235718,712.671509 515.058594,678.854675 
	C514.296753,670.745422 514.198486,662.552124 514.191040,654.397095 
	C514.127197,584.404541 514.153442,514.411926 514.155396,444.419281 
	C514.155701,434.104797 517.001587,431.069305 527.483459,430.914124 
	C531.773193,430.850555 536.127686,431.240906 540.355408,431.980927 
	C544.843872,432.766632 547.125549,435.914429 547.300293,440.485443 
	C547.363953,442.149750 547.338196,443.817810 547.338196,445.484161 
	C547.339722,514.643555 547.312866,583.802917 547.361206,652.962280 
	C547.371216,667.341492 548.754578,681.535950 553.868896,695.164795 
	C559.824402,711.035156 569.938477,723.365906 584.574890,731.981567 
	C602.517029,742.543274 622.086548,748.247070 642.573181,750.667114 
	C687.451477,755.968567 731.019470,751.031494 772.298645,731.829407 
	C810.881165,713.881714 842.966553,688.163208 865.306213,651.321167 
	C865.996277,650.183167 866.691467,649.046814 867.337341,647.883545 
	C873.065247,637.567444 885.364990,634.594788 895.549194,641.074402 
	C901.113953,644.614746 902.307312,649.256226 899.020874,655.103149 
	C887.672363,675.293213 873.579346,693.330322 856.290161,709.293030 
z"/>
</svg>