<svg version="1.1" id="Layer_1" xmlns="http://www.w3.org/2000/svg" xmlns:xlink="http://www.w3.org/1999/xlink" x="0px" y="0px"
	 width="100%" viewBox="0 0 480 480" enable-background="new 0 0 480 480" xml:space="preserve">
<path fill="#000000" opacity="1.000000" stroke="none" 
	d="
M228.696823,264.505737 
	C236.498825,289.080383 236.233673,312.413147 221.030121,334.009399 
	C216.513519,340.425140 210.393280,345.393250 204.024948,351.544586 
	C232.972961,375.015167 265.216217,386.490662 302.073029,384.243042 
	C338.757294,382.005951 369.806122,366.820953 396.327667,341.795166 
	C398.200531,344.251740 396.861176,345.540833 395.935333,346.835663 
	C373.362152,378.405121 344.355499,401.908691 307.937744,415.602112 
	C275.674896,427.733215 242.537430,431.154236 208.358200,424.681580 
	C179.684555,419.251587 153.512558,408.324219 130.416092,390.710602 
	C114.651634,378.688507 103.784042,362.397400 95.647438,344.437592 
	C85.873489,322.863678 81.864899,300.336609 86.694855,276.846313 
	C92.139923,250.364487 108.196136,232.684235 133.190414,223.101273 
	C146.702347,217.920715 160.634476,215.464005 175.282806,217.559357 
	C189.469666,219.588669 200.937653,226.270599 210.856491,236.178909 
	C218.854736,244.168671 225.081375,253.280060 228.696823,264.505737 
z"/>
<path fill="#000000" opacity="1.000000" stroke="none" 
	d="
M330.467590,361.539520 
	C313.666077,362.340698 298.659790,358.234558 285.335449,348.680969 
	C268.809357,336.831665 255.487946,322.320099 251.122192,301.790955 
	C246.923950,282.049591 251.315765,263.515778 262.918030,247.235168 
	C274.637329,230.790344 290.164185,218.838791 310.204468,214.214767 
	C323.072418,211.245651 336.037994,212.121902 348.510529,216.901001 
	C355.546173,219.596832 356.201080,219.159805 356.910004,211.496811 
	C359.297516,185.690857 356.562439,160.716537 345.888000,136.797791 
	C337.161591,117.244141 324.406189,100.800179 308.045410,87.238586 
	C292.394440,74.265320 275.002228,64.250900 255.149048,58.991058 
	C254.355804,58.780899 253.596512,58.382366 252.876144,57.974815 
	C252.185455,57.584045 251.566132,57.067158 250.675461,56.435509 
	C252.696167,53.999626 255.128387,54.707962 257.235168,54.968250 
	C289.108673,58.906116 319.005981,68.519966 345.641235,86.848564 
	C381.446686,111.487457 406.078705,144.549530 419.191254,186.061783 
	C427.652374,212.848389 431.231995,240.437088 425.116821,267.843262 
	C416.016235,308.628937 392.796814,339.256165 353.679596,356.393799 
	C346.462189,359.555817 338.832031,361.262604 330.467590,361.539520 
z"/>
<path fill="#000000" opacity="1.000000" stroke="none" 
	d="
M110.421677,109.408806 
	C130.676071,89.493782 153.251083,73.531525 180.661591,66.561256 
	C207.938416,59.625004 235.115860,61.460541 261.254883,72.928116 
	C277.583252,80.091606 291.757050,89.807129 301.582581,105.173805 
	C311.413025,120.548149 313.801880,137.415344 311.652069,155.024826 
	C309.942200,169.030579 305.434540,182.164536 297.075592,193.841873 
	C286.874542,208.092590 272.652740,216.185364 255.918839,218.900528 
	C224.855804,223.940689 198.906708,213.926071 178.877823,189.480438 
	C172.309113,181.463226 169.009445,171.821854 166.844513,161.805389 
	C166.313919,159.350449 165.864716,156.934921 163.904755,154.454880 
	C147.074615,160.204254 132.419891,169.652451 118.994904,181.272217 
	C105.441544,193.003143 95.043457,207.108810 87.049950,223.065399 
	C79.126778,238.881592 75.286560,255.786972 73.089233,273.247528 
	C70.879974,290.802979 73.556633,307.982971 77.258545,325.118011 
	C74.335403,325.399109 73.934486,324.190094 73.474136,323.165009 
	C57.779175,288.216217 51.132893,252.079544 57.255646,213.733871 
	C61.671856,186.075974 71.506645,160.835785 86.979683,137.682281 
	C93.741447,127.564148 101.333160,118.079025 110.421677,109.408806 
z"/>
</svg>