<svg version="1.1" id="Layer_1" xmlns="http://www.w3.org/2000/svg" xmlns:xlink="http://www.w3.org/1999/xlink" x="0px" y="0px"
	 width="100%" viewBox="0 0 1104 1482" enable-background="new 0 0 1104 1482" xml:space="preserve">
<path fill="#FEFEFE" opacity="1.000000" stroke="none" 
	d="
M1.000000,390.000000 
	C1.000000,260.000031 1.000000,130.500046 1.000000,1.000052 
	C368.999908,1.000035 736.999817,1.000035 1104.999878,1.000017 
	C1105.000000,247.999863 1105.000000,494.999725 1105.000000,741.999573 
	C1105.000000,988.999573 1105.000000,1235.999512 1105.000000,1482.999634 
	C737.000244,1482.999756 369.000488,1482.999756 1.000365,1482.999878 
	C1.000000,1118.833374 1.000000,754.666687 1.000000,390.000000 
M34.600567,161.662064 
	C31.004587,163.872604 27.408609,166.083160 23.040388,168.868317 
	C22.911236,169.512329 22.669224,170.156311 22.668989,170.800369 
	C22.649235,225.191803 22.640661,279.583221 22.699554,333.974609 
	C22.700741,335.072235 23.504143,336.169006 24.630531,337.689667 
	C28.073431,337.612427 31.516333,337.535187 35.870125,337.715881 
	C36.536270,337.731537 37.202419,337.760925 37.868565,337.760925 
	C380.772369,337.763153 723.676147,337.763763 1066.579956,337.751068 
	C1068.067383,337.751007 1069.554688,337.560089 1071.912109,337.675171 
	C1074.593018,337.603180 1077.274048,337.531189 1080.739014,337.739441 
	C1085.065186,338.107971 1083.958740,334.890472 1083.960327,332.642426 
	C1083.995972,281.239166 1083.723877,229.833176 1084.250854,178.435272 
	C1084.336060,170.123489 1081.514648,165.862488 1074.465210,163.217194 
	C1074.311646,163.159561 1074.139648,163.151367 1073.474609,162.651886 
	C1061.599365,155.964935 1049.824829,149.090424 1037.816406,142.651901 
	C1028.623169,137.722855 1019.134705,133.344742 1009.284607,128.090240 
	C1006.189026,126.717934 1003.093445,125.345619 999.350525,123.741692 
	C997.373596,122.787354 995.396729,121.833015 993.002380,120.256302 
	C989.052979,118.370598 985.103577,116.484894 980.404663,114.241333 
	C980.404663,154.704819 980.404663,194.247879 980.404663,234.068710 
	C978.651001,234.182449 977.366943,234.337814 976.082764,234.338409 
	C949.920715,234.350433 923.758606,234.355194 897.596619,234.319931 
	C895.788208,234.317490 893.980286,233.990555 892.281616,233.361191 
	C892.281616,233.361191 891.993896,232.994080 892.204956,232.078094 
	C892.214294,212.451904 892.228210,192.825699 892.231934,173.199509 
	C892.237549,143.261032 892.273926,113.322395 892.141602,83.384521 
	C892.133911,81.630096 891.194885,78.936737 889.902405,78.314316 
	C886.515747,76.683296 882.693176,75.957253 878.562073,74.331856 
	C861.883240,69.249962 845.296021,63.836220 828.495056,59.196697 
	C816.214294,55.805416 803.652222,53.432663 790.972839,49.968544 
	C790.349792,50.732525 789.726685,51.496502 788.925476,52.879917 
	C788.982300,53.516426 789.039185,54.152935 788.916321,55.323120 
	C788.967773,55.880188 789.019287,56.437252 788.868652,57.866150 
	C788.937378,60.246536 789.006042,62.626923 788.937805,65.935234 
	C788.967590,121.957588 788.997375,177.979935 788.101990,234.194855 
	C760.257629,234.239288 732.413208,234.302612 704.568909,234.269608 
	C703.247925,234.268051 701.927979,233.412399 700.780945,232.037842 
	C700.791748,166.967773 700.789124,101.897682 700.858093,36.827671 
	C700.861084,33.956890 700.658020,31.786335 696.251465,31.827597 
	C680.264465,29.956051 664.309692,27.715483 648.281494,26.315756 
	C631.943542,24.888977 615.533386,24.289053 598.201172,23.305696 
	C597.916199,24.855890 597.382629,26.405977 597.381958,27.956289 
	C597.353210,94.451675 597.369873,160.947083 597.394409,227.442490 
	C597.395081,229.267929 597.541748,231.093307 596.956909,233.604172 
	C596.359192,233.860657 595.761597,234.341034 595.163696,234.341446 
	C567.477783,234.360504 539.791809,234.361435 512.106445,234.232147 
	C511.010651,234.227036 509.920898,232.935638 509.044464,231.415070 
	C509.044464,162.027451 509.044464,92.639816 509.044464,22.826283 
	C503.849365,23.228697 499.406097,23.572872 494.055573,23.706512 
	C487.435242,24.123354 480.789459,24.300694 474.199249,25.000927 
	C452.455048,27.311317 430.730927,29.810770 408.156189,32.169937 
	C404.391418,32.679790 405.745605,35.632153 405.743683,37.659218 
	C405.684082,101.144623 405.693665,164.630081 405.692627,228.115540 
	C405.692596,230.057327 405.692627,231.999100 405.692627,233.965302 
	C375.959412,233.965302 346.900208,233.965302 317.329865,233.965302 
	C317.329865,172.219345 317.329865,110.857605 317.329865,48.915470 
	C308.097443,51.295948 299.483551,53.516941 290.095032,55.830105 
	C284.800873,57.260544 279.454224,58.522396 274.222198,60.152252 
	C256.802521,65.578712 239.424011,71.137283 221.214249,76.689507 
	C218.603973,78.429420 213.950684,76.908279 213.976624,82.741867 
	C214.200836,133.174835 214.143768,183.609055 213.219025,234.177231 
	C185.407394,234.225113 157.595749,234.291641 129.784195,234.263962 
	C128.438736,234.262619 127.094101,233.432556 125.940872,232.070023 
	C125.940872,193.073486 125.940872,154.076950 125.940872,114.213127 
	C121.626907,116.392609 118.259071,118.094093 114.153427,119.811127 
	C97.205414,128.438965 80.257401,137.066803 62.653061,145.833893 
	C53.631599,150.982666 44.610138,156.131439 35.404133,161.357620 
	C35.404133,161.357620 35.232384,161.460312 34.600567,161.662064 
M597.334045,430.623474 
	C597.352600,544.176758 597.376770,657.730042 597.385864,771.283325 
	C597.388367,802.751587 597.345947,834.219910 596.643677,865.808044 
	C596.452393,865.936279 596.261108,866.064575 595.357849,866.061340 
	C594.883789,866.128174 594.409668,866.195007 593.013489,866.153076 
	C566.031799,866.167175 539.050049,866.181213 511.383698,866.001465 
	C510.910431,866.000977 510.437164,866.000427 509.533508,865.752197 
	C509.533508,865.752197 509.037018,865.745117 509.108765,865.148254 
	C509.035065,864.761597 508.961365,864.374939 509.090363,863.072021 
	C509.097351,718.376038 509.104523,573.680054 509.103180,428.984100 
	C509.103180,428.325043 508.980560,427.666016 509.054688,426.403076 
	C508.701721,426.292267 508.348755,426.181458 507.252075,425.935181 
	C506.501526,425.980835 505.750977,426.026520 504.086334,425.940704 
	C500.385925,425.997009 496.685516,426.053345 492.059418,425.963257 
	C467.047882,426.014374 442.036346,426.065491 416.197723,425.950531 
	C414.797913,426.008148 413.398071,426.065735 411.132965,425.973480 
	C409.492950,425.973480 407.852936,425.973480 405.710907,425.973480 
	C405.710907,428.148956 405.710754,430.106415 405.710938,432.063873 
	C405.723419,570.385193 405.733246,708.706543 405.758026,847.027893 
	C405.759033,852.685791 405.900818,858.343628 405.767639,864.495483 
	C405.841217,864.658447 405.914825,864.821411 405.779633,865.495544 
	C405.831726,865.672058 405.883850,865.848572 405.788300,866.951050 
	C405.789642,890.705139 405.763367,914.459229 405.805267,938.213257 
	C405.823425,948.504700 405.982117,958.795837 405.839752,969.988220 
	C405.786987,971.318665 405.687958,972.649170 405.688019,973.979614 
	C405.692719,1084.777832 405.706451,1195.576050 405.700043,1306.374268 
	C405.699982,1307.576050 405.443878,1308.777954 405.242126,1310.553467 
	C401.986847,1308.810303 399.348175,1307.426636 396.736267,1305.994263 
	C369.128784,1290.854492 342.915680,1273.556763 317.664429,1254.064331 
	C317.517242,1253.035034 317.370026,1252.005737 317.536469,1250.312622 
	C317.573730,1247.982056 317.643585,1245.651367 317.643616,1243.320801 
	C317.648560,975.704102 317.648926,708.087341 317.634399,440.470642 
	C317.634308,438.652954 317.424316,436.835266 317.569489,434.127136 
	C317.592194,432.167633 317.882141,430.156311 317.516571,428.272125 
	C317.351807,427.423096 315.879852,426.827698 314.161957,425.920258 
	C312.442627,425.986206 310.723267,426.052185 308.211731,425.947235 
	C307.136932,426.002563 306.062103,426.057922 304.501587,425.977661 
	C304.339081,426.020813 304.176605,426.063934 303.344574,425.941833 
	C302.891510,425.996796 302.438446,426.051788 301.059631,425.960541 
	C276.380157,426.009430 251.700684,426.058350 226.122910,425.940979 
	C223.083282,425.999237 220.043671,426.057495 216.219482,425.963257 
	C212.210632,426.139069 214.210403,429.231964 214.209671,430.807343 
	C214.099091,667.546814 214.095627,904.286377 214.100128,1141.025879 
	C214.100159,1142.347412 214.276840,1143.669067 214.148758,1145.856689 
	C214.148758,1148.726440 214.148758,1151.596191 214.148758,1155.388306 
	C212.863968,1154.203125 212.462433,1153.940063 212.201248,1153.576416 
	C195.518494,1130.350708 177.896210,1107.728271 162.449295,1083.707153 
	C147.780777,1060.896484 132.622910,1037.993530 126.164505,1010.064819 
	C126.106453,1008.068909 125.997665,1006.072937 125.997566,1004.077026 
	C125.988152,814.401855 125.987572,624.726624 125.976318,435.051453 
	C125.976219,433.395233 125.839676,431.739014 125.934799,429.434082 
	C125.622574,428.323273 125.310356,427.212433 124.208916,425.939880 
	C123.139610,425.988342 122.070305,426.036835 120.092979,425.943878 
	C116.723412,425.997986 113.353851,426.052063 109.058876,425.959412 
	C84.380043,426.008484 59.701210,426.057556 34.116180,425.940857 
	C30.744350,425.993225 27.372522,426.045624 23.090530,426.191498 
	C22.939751,427.826050 22.657030,429.460571 22.656910,431.095123 
	C22.642895,621.753174 22.649090,812.411255 22.666151,1003.069336 
	C22.666328,1005.060364 22.824389,1007.051331 22.679239,1009.948242 
	C23.041954,1031.392456 27.905550,1051.796265 37.168766,1071.105835 
	C55.854218,1110.056519 78.004639,1146.973999 103.383377,1181.907349 
	C128.847733,1216.958618 157.136703,1249.583984 188.323334,1279.719116 
	C216.863144,1307.296753 247.339417,1332.493408 279.875916,1355.159180 
	C331.168182,1390.890503 386.091461,1419.806641 444.846619,1441.215454 
	C461.988220,1447.461304 479.569733,1452.500000 497.498596,1458.610352 
	C501.156281,1459.559326 504.813995,1460.508301 509.120667,1461.625610 
	C509.120667,1458.653809 509.120697,1456.207886 509.120667,1453.761963 
	C509.119324,1294.510010 509.118683,1135.258057 509.107117,976.006042 
	C509.106995,974.347778 508.963531,972.689514 509.118500,970.643555 
	C509.118500,970.643555 509.119904,970.192017 509.766144,969.664124 
	C510.400818,969.508972 511.035614,969.217590 511.670105,969.218140 
	C540.269653,969.242798 568.869202,969.293030 597.407654,970.209961 
	C597.407654,1133.789429 597.407654,1297.368774 597.407654,1461.592163 
	C599.352234,1460.990723 600.712891,1460.569824 602.868958,1460.285889 
	C628.691162,1451.569458 654.840454,1443.705200 680.263062,1433.947876 
	C724.350403,1417.026733 765.883362,1394.875122 805.536438,1369.223755 
	C840.258606,1346.761963 872.849976,1321.564575 903.365540,1293.637817 
	C929.809265,1269.437622 954.349304,1243.460083 977.034485,1215.734619 
	C1007.266968,1178.785156 1033.719971,1139.271973 1056.023071,1097.061279 
	C1062.914185,1084.019287 1068.649170,1070.366455 1075.296387,1056.380981 
	C1075.200439,1055.920166 1075.104492,1055.459473 1075.110718,1054.540894 
	C1075.110718,1054.540894 1075.194946,1054.079468 1075.920654,1053.780273 
	C1076.342285,1051.541382 1076.763794,1049.302612 1077.947388,1046.783936 
	C1078.423340,1043.912720 1078.899414,1041.041626 1080.003906,1037.943237 
	C1079.964600,1037.297607 1079.925415,1036.652100 1080.126465,1035.611816 
	C1080.307129,1035.359009 1080.445679,1035.084961 1081.148682,1034.241455 
	C1081.053101,1033.162109 1080.957520,1032.082642 1081.075684,1030.390137 
	C1081.119751,1029.959717 1081.163818,1029.529175 1081.932495,1028.783569 
	C1081.923340,1027.527344 1081.914185,1026.270996 1082.060547,1024.272095 
	C1082.383057,1022.851196 1082.705688,1021.430298 1083.315918,1019.192749 
	C1083.510254,1015.368530 1083.871948,1011.544312 1083.873779,1007.720032 
	C1083.900269,952.255676 1083.880859,896.791382 1083.848145,841.327026 
	C1083.847534,840.396729 1083.547241,839.466492 1083.384277,838.521851 
	C1049.039185,838.521851 1014.964783,838.521851 980.034119,838.521851 
	C980.034119,896.875671 980.034119,954.942688 979.615051,1013.641113 
	C978.011292,1018.697021 976.997192,1024.038086 974.711609,1028.764282 
	C953.897034,1071.804810 928.153564,1111.753296 898.036987,1148.843872 
	C865.386536,1189.054810 828.399719,1224.822632 786.991150,1255.999512 
	C760.887756,1275.653076 733.479675,1293.244507 704.664124,1308.635742 
	C703.558777,1309.226196 701.948792,1308.872070 700.750793,1308.267456 
	C700.760803,1199.182251 700.772705,1090.097046 700.772217,981.011841 
	C700.772217,977.687622 700.644165,974.363403 700.783997,970.429016 
	C700.738708,970.003418 700.693481,969.577820 700.870789,968.221191 
	C700.887390,958.723938 700.937317,949.226685 700.914124,939.729492 
	C700.853821,915.075928 700.761292,890.422546 700.786743,864.869019 
	C700.783752,758.074463 700.777710,651.279907 700.787170,544.485352 
	C700.787598,539.325439 700.924011,534.165527 701.934937,529.007629 
	C794.628540,529.004822 887.322144,529.002075 980.268982,529.907166 
	C980.268982,578.647949 980.268982,627.388733 980.268982,676.146729 
	C1015.088745,676.146729 1049.338867,676.146729 1083.665039,676.146729 
	C1083.665039,592.600891 1083.665039,509.378265 1083.665039,426.117035 
	C1078.907349,426.117035 1074.442261,426.117035 1069.052979,425.970093 
	C917.873657,425.964783 766.694336,425.959167 615.515015,425.960938 
	C614.353455,425.960968 613.191895,426.062744 611.123413,425.945862 
	C607.744751,425.988342 604.366028,426.030823 600.117371,425.917664 
	C596.680725,425.579193 597.063049,427.650085 597.334045,430.623474 
z"/>
<path fill="#1E3243" opacity="1.000000" stroke="none" 
	d="
M217.004044,426.115723 
	C220.043671,426.057495 223.083282,425.999237 226.879684,426.301422 
	C228.283493,426.774780 228.930450,426.985870 229.577591,426.986389 
	C252.473557,427.004791 275.369568,427.017395 298.265442,426.966522 
	C299.506073,426.963776 300.745453,426.406128 301.985382,426.106781 
	C302.438446,426.051788 302.891510,425.996796 303.767303,426.179138 
	C304.455780,426.315369 304.721527,426.214294 304.987305,426.113220 
	C306.062103,426.057922 307.136932,426.002563 308.679169,426.381958 
	C310.435547,427.213562 311.724487,427.610413 313.009979,428.475525 
	C313.006531,702.610046 313.006531,976.276367 313.006531,1249.942749 
	C313.474030,1249.971436 313.941498,1250.000122 314.408997,1250.028687 
	C314.607605,1247.514404 314.979950,1245.000122 314.980194,1242.485840 
	C315.006500,975.861938 315.004852,709.238037 315.005585,442.614136 
	C315.005585,440.947815 314.746613,439.217499 315.120819,437.638458 
	C315.355713,436.647400 316.549011,435.883453 317.312317,435.017578 
	C317.424316,436.835266 317.634308,438.652954 317.634399,440.470642 
	C317.648926,708.087341 317.648560,975.704102 317.643616,1243.320801 
	C317.643585,1245.651367 317.573730,1247.982056 317.015839,1250.692139 
	C315.995972,1252.047729 315.496765,1253.023804 314.663757,1254.048828 
	C314.027557,1254.794189 313.725159,1255.490723 313.422760,1256.187378 
	C313.788605,1256.315918 314.154480,1256.444458 314.520325,1256.572876 
	C314.681000,1255.715332 314.841705,1254.857666 315.321289,1254.136353 
	C316.298187,1254.464844 316.956207,1254.656982 317.614227,1254.849121 
	C342.915680,1273.556763 369.128784,1290.854492 396.736267,1305.994263 
	C399.348175,1307.426636 401.986847,1308.810303 405.242126,1310.553467 
	C405.443878,1308.777954 405.699982,1307.576050 405.700043,1306.374268 
	C405.706451,1195.576050 405.692719,1084.777832 405.688019,973.979614 
	C405.687958,972.649170 405.786987,971.318665 406.373779,969.553101 
	C410.040588,969.343079 413.172485,969.750061 416.306244,969.764587 
	C443.874054,969.892029 471.442169,969.949585 499.093872,970.403564 
	C500.938141,971.426392 502.698761,972.073608 505.274841,973.020569 
	C505.511475,984.024170 505.978149,995.354614 505.935394,1006.683044 
	C505.893402,1017.804443 505.069000,1028.923340 505.046570,1040.044312 
	C504.943573,1091.107910 504.881927,1142.172241 505.044006,1193.235596 
	C505.148590,1226.182617 505.737030,1259.127686 505.942657,1292.074829 
	C505.988129,1299.360840 505.015320,1306.652710 505.053101,1313.939087 
	C505.295654,1360.714233 505.636719,1407.489136 506.132080,1454.262085 
	C506.171875,1458.019775 504.692261,1457.890381 501.982910,1457.570435 
	C500.348450,1457.377441 498.630157,1457.894287 496.949585,1458.092041 
	C479.569733,1452.500000 461.988220,1447.461304 444.846619,1441.215454 
	C386.091461,1419.806641 331.168182,1390.890503 279.875916,1355.159180 
	C247.339417,1332.493408 216.863144,1307.296753 188.323334,1279.719116 
	C157.136703,1249.583984 128.847733,1216.958618 103.383377,1181.907349 
	C78.004639,1146.973999 55.854218,1110.056519 37.168766,1071.105835 
	C27.905550,1051.796265 23.041954,1031.392456 23.118137,1009.221436 
	C23.710646,1007.022034 23.998713,1005.549561 23.998821,1004.077026 
	C24.013168,811.417358 24.006418,618.757690 24.000692,426.098022 
	C27.372522,426.045624 30.744350,425.993225 34.876846,426.300812 
	C36.284519,426.773682 36.931454,426.984802 37.578556,426.985321 
	C60.473793,427.003662 83.369080,427.016235 106.264214,426.965332 
	C107.504868,426.962555 108.744286,426.405304 109.984283,426.106140 
	C113.353851,426.052063 116.723412,425.997986 120.542786,426.477692 
	C120.992599,623.486023 120.992599,819.960571 120.992599,1016.435120 
	C121.345963,1016.450439 121.699333,1016.465759 122.052696,1016.481079 
	C123.376274,1014.651794 124.699852,1012.822449 126.023422,1010.993164 
	C132.622910,1037.993530 147.780777,1060.896484 162.449295,1083.707153 
	C177.896210,1107.728271 195.518494,1130.350708 212.201248,1153.576416 
	C212.462433,1153.940063 212.863968,1154.203125 214.148758,1155.388306 
	C214.148758,1151.596191 214.148758,1148.726440 214.651291,1145.394287 
	C215.767960,1142.949463 216.919373,1140.967285 216.920059,1138.984497 
	C217.001266,905.479431 216.997070,671.974304 216.997818,438.469208 
	C216.997833,434.351379 217.001877,430.233582 217.004044,426.115723 
z"/>
<path fill="#1E3243" opacity="1.000000" stroke="none" 
	d="
M125.749084,232.988403 
	C127.094101,233.432556 128.438736,234.262619 129.784195,234.263962 
	C157.595749,234.291641 185.407394,234.225113 214.070160,234.018295 
	C215.614319,231.843994 216.907272,229.830124 216.912262,227.813065 
	C217.025711,182.040924 216.989029,136.268463 217.010544,90.496063 
	C217.012833,85.631088 215.476318,80.118729 221.851562,77.593361 
	C222.011093,77.530151 221.974731,76.972343 222.029724,76.645210 
	C239.424011,71.137283 256.802521,65.578712 274.222198,60.152252 
	C279.454224,58.522396 284.800873,57.260544 290.738861,56.112625 
	C296.089783,56.571430 300.822388,57.138969 305.498108,56.833954 
	C312.842987,56.354820 312.996582,56.252972 312.996765,63.611828 
	C312.998199,118.435295 312.994537,173.258759 313.001984,228.082230 
	C313.002777,233.876053 315.528046,236.963425 320.591370,236.964050 
	C348.058899,236.967499 375.526459,236.886444 402.993988,236.833527 
	C406.262421,236.827240 408.511993,235.285172 408.776093,232.003876 
	C409.104431,227.924286 408.992615,223.805618 408.993225,219.703842 
	C409.002655,157.215103 408.999420,94.726372 408.999115,32.237637 
	C430.730927,29.810770 452.455048,27.311317 474.199249,25.000927 
	C480.789459,24.300694 487.435242,24.123354 494.785461,24.123472 
	C498.571228,24.854654 501.627136,25.168877 504.980286,25.513660 
	C505.685486,30.522348 506.900452,35.169678 506.909760,39.819420 
	C507.034119,101.908127 506.972137,163.997208 507.064880,226.086014 
	C507.067963,228.139404 508.214722,230.191086 508.828339,232.243561 
	C509.920898,232.935638 511.010651,234.227036 512.106445,234.232147 
	C539.791809,234.361435 567.477783,234.360504 595.163696,234.341446 
	C595.761597,234.341034 596.359192,233.860657 597.624756,233.106384 
	C598.533691,230.857834 598.983826,229.107269 598.985229,227.356323 
	C599.021179,180.962524 598.995667,134.568695 599.015320,88.174866 
	C599.024475,66.558929 599.106079,44.943024 599.154846,23.327103 
	C615.533386,24.289053 631.943542,24.888977 648.281494,26.315756 
	C664.309692,27.715483 680.264465,29.956051 696.644714,32.405762 
	C697.685181,36.965687 698.888306,40.946323 698.896362,44.929375 
	C699.018921,105.711769 698.970642,166.494492 699.056091,227.277023 
	C699.058777,229.170227 700.067749,231.062027 700.607544,232.954498 
	C701.927979,233.412399 703.247925,234.268051 704.568909,234.269608 
	C732.413208,234.302612 760.257629,234.239288 788.885498,234.180634 
	C790.109009,233.366013 790.955078,232.548340 790.921936,231.768021 
	C790.732666,227.316132 790.056091,222.873535 790.049377,218.427048 
	C789.979797,172.212738 789.993347,125.998268 790.041077,79.783905 
	C790.043762,77.161278 790.863892,74.521461 790.719666,71.922050 
	C790.590454,69.593872 789.654663,67.310463 789.074768,65.007309 
	C789.006042,62.626923 788.937378,60.246536 789.334595,57.425346 
	C790.350891,56.606247 790.901367,56.227951 791.451782,55.849655 
	C790.666565,55.496250 789.881287,55.142841 789.096069,54.789436 
	C789.039185,54.152935 788.982300,53.516426 789.446594,52.406425 
	C790.383667,51.490578 790.799622,51.048229 791.215576,50.605896 
	C803.652222,53.432663 816.214294,55.805416 828.495056,59.196697 
	C845.296021,63.836220 861.883240,69.249962 878.844971,74.949455 
	C880.096741,76.329933 881.065613,77.092812 882.488220,78.212898 
	C880.540222,79.311775 879.322144,79.998901 877.173889,81.210739 
	C881.995239,80.915329 885.725281,80.686790 889.998535,80.424973 
	C889.998535,82.635376 889.998535,84.592339 889.998474,86.549301 
	C889.996521,133.975540 889.982056,181.401779 890.035461,228.827957 
	C890.037781,230.886078 890.664307,232.943497 891.149170,235.340912 
	C892.441711,238.064682 892.406738,241.099823 896.579224,241.077194 
	C925.598999,240.919647 954.620056,240.994003 983.101318,240.994003 
	C983.816772,235.644592 984.901123,231.222885 984.921143,226.796387 
	C985.067505,194.502335 984.999512,162.207336 985.000366,129.912628 
	C985.000610,121.216301 985.005920,121.212608 993.419800,120.878677 
	C995.396729,121.833015 997.373596,122.787354 999.675903,124.263901 
	C1001.104370,131.452881 1006.157288,128.307861 1009.777588,128.721588 
	C1019.134705,133.344742 1028.623169,137.722855 1037.816406,142.651901 
	C1049.824829,149.090424 1061.599365,155.964935 1073.577881,163.205627 
	C1073.317383,165.333435 1072.953369,166.907501 1072.584717,168.502014 
	C1079.212158,169.518036 1081.016968,171.726685 1081.017578,178.536560 
	C1081.021362,223.259781 1080.998291,267.983032 1081.059570,312.706177 
	C1081.064575,316.321655 1082.037598,319.958191 1081.842896,323.545990 
	C1081.590210,328.204163 1080.617676,332.823273 1079.954956,337.459198 
	C1077.274048,337.531189 1074.593018,337.603180 1071.316406,337.223114 
	C1068.630127,336.518127 1066.539429,336.043732 1064.448730,336.043549 
	C723.564087,336.010864 382.679474,336.012207 41.794865,336.012543 
	C40.295406,336.012543 38.770538,335.855225 37.306339,336.083923 
	C36.472771,336.214111 35.738316,336.978912 34.959229,337.457977 
	C31.516333,337.535187 28.073431,337.612427 24.303474,336.992126 
	C24.013973,282.182037 24.051525,228.069519 24.428017,173.907928 
	C26.343790,172.264084 27.682074,169.738205 29.545197,169.260895 
	C33.949966,168.132385 33.622353,164.225555 35.232384,161.460312 
	C35.232384,161.460312 35.404133,161.357620 35.870941,161.486267 
	C40.224724,160.370377 44.229244,159.403000 47.971004,157.816071 
	C53.513935,155.465240 58.870510,152.675003 65.083549,149.699677 
	C64.745483,148.936539 64.027435,147.315582 63.309387,145.694641 
	C80.257401,137.066803 97.205414,128.438965 114.780548,120.121796 
	C117.135651,120.803940 118.863625,121.175423 120.926834,121.618980 
	C120.926834,158.899261 120.926834,195.979874 120.926834,232.988403 
	C122.799004,232.988403 124.274040,232.988403 125.749084,232.988403 
M997.616577,128.478333 
	C997.834961,128.533676 998.053345,128.589020 998.271729,128.644363 
	C998.131531,128.508209 997.991333,128.372070 997.616577,128.478333 
z"/>
<path fill="#1E3243" opacity="1.000000" stroke="none" 
	d="
M1081.208008,1029.098755 
	C1081.163818,1029.529175 1081.119751,1029.959717 1080.634888,1030.765137 
	C1080.310059,1032.356567 1080.426025,1033.573120 1080.541992,1034.789551 
	C1080.445679,1035.084961 1080.307129,1035.359009 1079.701172,1035.856934 
	C1079.309082,1036.791626 1079.342163,1037.480957 1079.375366,1038.170410 
	C1078.899414,1041.041626 1078.423340,1043.912720 1077.149658,1046.906494 
	C1072.035645,1048.093506 1071.672119,1050.309204 1075.194946,1054.079468 
	C1075.194946,1054.079468 1075.110718,1054.540894 1074.827515,1054.903320 
	C1074.667358,1055.841675 1074.790405,1056.417358 1074.913452,1056.993164 
	C1068.649170,1070.366455 1062.914185,1084.019287 1056.023071,1097.061279 
	C1033.719971,1139.271973 1007.266968,1178.785156 977.034485,1215.734619 
	C954.349304,1243.460083 929.809265,1269.437622 903.365540,1293.637817 
	C872.849976,1321.564575 840.258606,1346.761963 805.536438,1369.223755 
	C765.883362,1394.875122 724.350403,1417.026733 680.263062,1433.947876 
	C654.840454,1443.705200 628.691162,1451.569458 602.287720,1459.886963 
	C600.806763,1456.645630 599.121704,1453.803833 599.119446,1450.960693 
	C598.992981,1294.073120 599.006592,1137.185425 599.013245,980.297729 
	C599.013428,976.802002 599.098083,973.306274 599.602539,969.787476 
	C633.590576,969.560364 667.119385,969.356323 700.648193,969.152222 
	C700.693481,969.577820 700.738708,970.003418 700.306335,970.768005 
	C699.278137,972.746399 698.321960,974.373169 698.270142,976.028198 
	C698.188171,978.643921 698.923462,981.277039 698.943787,983.905701 
	C699.030090,995.067078 698.980103,1006.229431 698.980591,1017.391479 
	C698.985046,1112.518677 698.979675,1207.645874 699.060181,1302.773071 
	C699.061890,1304.835083 700.047363,1306.896484 700.573975,1308.958130 
	C701.948792,1308.872070 703.558777,1309.226196 704.664124,1308.635742 
	C733.479675,1293.244507 760.887756,1275.653076 786.991150,1255.999512 
	C828.399719,1224.822632 865.386536,1189.054810 898.036987,1148.843872 
	C928.153564,1111.753296 953.897034,1071.804810 974.711609,1028.764282 
	C976.997192,1024.038086 978.011292,1018.697021 980.187073,1013.395874 
	C981.701599,1016.827698 982.644043,1020.504761 983.773071,1024.909668 
	C984.210388,1021.884033 984.948608,1019.144531 984.951904,1016.404175 
	C985.018494,960.784851 985.000183,905.165527 985.000916,849.546143 
	C985.001038,841.227722 985.224182,841.000610 993.297058,841.000305 
	C1019.608032,840.999146 1045.918945,840.998901 1072.229980,841.000610 
	C1080.212158,841.001099 1080.998535,841.798096 1080.998901,849.924133 
	C1081.001099,901.047302 1080.937744,952.170715 1081.088989,1003.293457 
	C1081.105469,1008.867310 1082.352051,1014.437500 1083.028198,1020.009399 
	C1082.705688,1021.430298 1082.383057,1022.851196 1081.727539,1024.833496 
	C1081.332397,1026.629517 1081.270142,1027.864136 1081.208008,1029.098755 
M1073.386841,1042.201904 
	C1073.783813,1042.206177 1074.180664,1042.210571 1074.577637,1042.214844 
	C1074.578979,1042.050049 1074.591431,1041.742310 1074.580078,1041.741333 
	C1074.184814,1041.710571 1073.787109,1041.708740 1073.386841,1042.201904 
z"/>
<path fill="#1E3243" opacity="1.000000" stroke="none" 
	d="
M980.015747,528.999329 
	C887.322144,529.002075 794.628540,529.004822 701.075989,529.119263 
	C699.810486,531.050171 699.052063,532.868774 699.049011,534.688660 
	C698.976807,577.640686 698.974060,620.592712 698.983276,663.544800 
	C698.997742,730.969238 699.030273,798.393616 698.593628,865.924683 
	C674.692627,866.020874 651.252991,866.036682 627.813538,865.987305 
	C618.182495,865.966980 608.551697,865.806091 598.927612,865.424011 
	C598.970398,864.759460 599.006287,864.380005 599.435547,863.905457 
	C600.220093,861.801514 600.952942,859.792908 600.953674,857.783997 
	C601.007385,718.801941 601.002441,579.819885 601.002502,440.837799 
	C601.002502,431.953033 602.942078,429.997986 611.770630,429.997955 
	C764.584229,429.997406 917.397827,429.997528 1070.211426,429.997559 
	C1071.044678,429.997559 1071.878174,429.981873 1072.711060,430.000793 
	C1077.709839,430.114227 1080.995972,433.391510 1080.996338,438.319580 
	C1081.001465,514.809692 1080.968018,591.299927 1081.086548,667.789856 
	C1081.093018,671.980042 1079.862915,673.110901 1075.740479,673.085083 
	C1048.744873,672.915955 1021.747925,672.997253 994.751404,673.005005 
	C993.253601,673.005493 991.588989,672.665222 990.287292,673.190674 
	C985.011230,675.320190 984.949951,672.330505 984.956055,668.424744 
	C985.025513,624.097290 985.000671,579.769592 985.001038,535.442017 
	C985.001038,533.492065 985.001038,531.542053 985.001038,529.297302 
	C982.932983,529.173706 981.474365,529.086548 980.015747,528.999329 
z"/>
<path fill="#1D3143" opacity="1.000000" stroke="none" 
	d="
M508.887665,863.988281 
	C508.961365,864.374939 509.035065,864.761597 508.605347,865.529419 
	C474.046631,865.948792 439.991302,865.987000 405.935974,866.025146 
	C405.883850,865.848572 405.831726,865.672058 406.140747,865.239502 
	C406.672821,864.974304 406.843719,864.965149 407.313354,864.669250 
	C408.073914,856.949097 408.933960,849.515991 408.938477,842.082275 
	C409.020020,707.808960 408.998383,573.535583 408.998779,439.262177 
	C408.998779,435.794098 408.998779,432.326019 408.998779,428.540009 
	C409.638306,428.024750 410.818268,427.074066 411.998260,426.123352 
	C413.398071,426.065735 414.797913,426.008148 416.920288,426.308441 
	C418.290314,426.777405 418.937744,426.985016 419.585266,426.985504 
	C442.811279,427.003510 466.037323,427.015930 489.263214,426.965454 
	C490.504456,426.962769 491.744507,426.407654 492.985107,426.109680 
	C496.685516,426.053345 500.385925,425.997009 504.569519,426.346069 
	C505.369080,429.743225 505.996552,432.740997 505.938904,435.725525 
	C505.807709,442.519012 505.039886,449.307800 505.079651,456.095276 
	C505.139404,466.300049 505.916473,476.501831 505.926453,486.705353 
	C505.935669,496.161133 505.069305,505.617828 505.080627,515.073547 
	C505.093018,525.443420 505.992371,535.814270 505.937347,546.181763 
	C505.779327,575.969360 505.277863,605.754944 505.053955,635.542419 
	C505.012939,640.996155 505.884186,646.454468 505.892303,651.911377 
	C505.899902,657.034424 504.953827,662.168335 505.092834,667.279419 
	C505.279724,674.150940 506.339600,680.996948 506.579163,687.869446 
	C506.755554,692.930115 506.032898,698.015503 506.027649,703.090149 
	C505.978851,750.261292 506.029205,797.432434 505.955048,844.603455 
	C505.946991,849.727234 505.400818,854.855591 504.976807,859.971313 
	C504.730072,862.948303 505.746155,864.436829 508.887665,863.988281 
M499.239197,432.531281 
	C498.850006,432.404480 498.465454,432.256622 498.067688,432.168640 
	C497.988098,432.151031 497.858002,432.361725 497.751221,432.467194 
	C498.140411,432.593811 498.529602,432.720428 499.239197,432.531281 
z"/>
<path fill="#242D3B" opacity="1.000000" stroke="none" 
	d="
M980.142334,529.453247 
	C981.474365,529.086548 982.932983,529.173706 985.001038,529.297302 
	C985.001038,531.542053 985.001038,533.492065 985.001038,535.442017 
	C985.000671,579.769592 985.025513,624.097290 984.956055,668.424744 
	C984.949951,672.330505 985.011230,675.320190 990.287292,673.190674 
	C991.588989,672.665222 993.253601,673.005493 994.751404,673.005005 
	C1021.747925,672.997253 1048.744873,672.915955 1075.740479,673.085083 
	C1079.862915,673.110901 1081.093018,671.980042 1081.086548,667.789856 
	C1080.968018,591.299927 1081.001465,514.809692 1080.996338,438.319580 
	C1080.995972,433.391510 1077.709839,430.114227 1072.711060,430.000793 
	C1071.878174,429.981873 1071.044678,429.997559 1070.211426,429.997559 
	C917.397827,429.997528 764.584229,429.997406 611.770630,429.997955 
	C602.942078,429.997986 601.002502,431.953033 601.002502,440.837799 
	C601.002441,579.819885 601.007385,718.801941 600.953674,857.783997 
	C600.952942,859.792908 600.220093,861.801514 599.419617,863.436951 
	C599.004822,718.711914 598.999329,574.360229 598.998535,429.667542 
	C599.664612,428.242126 600.325989,427.157715 600.987366,426.073303 
	C604.366028,426.030823 607.744751,425.988342 611.886353,426.304382 
	C614.132324,426.773621 615.615356,426.981201 617.098328,426.981354 
	C766.310242,426.996063 915.522217,426.998077 1064.734131,426.958710 
	C1066.481934,426.958221 1068.229614,426.409729 1069.977295,426.117035 
	C1074.442261,426.117035 1078.907349,426.117035 1083.665039,426.117035 
	C1083.665039,509.378265 1083.665039,592.600891 1083.665039,676.146729 
	C1049.338867,676.146729 1015.088745,676.146729 980.268982,676.146729 
	C980.268982,627.388733 980.268982,578.647949 980.142334,529.453247 
z"/>
<path fill="#182837" opacity="1.000000" stroke="none" 
	d="
M126.093964,1010.528992 
	C124.699852,1012.822449 123.376274,1014.651794 122.052696,1016.481079 
	C121.699333,1016.465759 121.345963,1016.450439 120.992599,1016.435120 
	C120.992599,819.960571 120.992599,623.486023 120.996796,426.548401 
	C122.070305,426.036835 123.139610,425.988342 124.556625,426.321655 
	C124.014610,427.841644 123.124886,428.979889 121.511360,431.044067 
	C123.883324,430.508270 124.825073,430.295532 125.766830,430.082794 
	C125.839676,431.739014 125.976219,433.395233 125.976318,435.051453 
	C125.987572,624.726624 125.988152,814.401855 125.997566,1004.077026 
	C125.997665,1006.072937 126.106453,1008.068909 126.093964,1010.528992 
z"/>
<path fill="#5490B5" opacity="1.000000" stroke="none" 
	d="
M405.862122,866.488159 
	C439.991302,865.987000 474.046631,865.948792 508.569489,865.827881 
	C509.037018,865.745117 509.533508,865.752197 509.874146,866.122925 
	C510.832611,866.394287 511.450500,866.294800 512.068359,866.195312 
	C539.050049,866.181213 566.031799,866.167175 593.649902,866.406128 
	C594.880859,866.503723 595.475342,866.348267 596.069824,866.192810 
	C596.261108,866.064575 596.452393,865.936279 597.249756,865.689392 
	C598.210815,865.616882 598.565796,865.663025 598.920776,865.709167 
	C608.551697,865.806091 618.182495,865.966980 627.813538,865.987305 
	C651.252991,866.036682 674.692627,866.020874 698.867432,865.938660 
	C699.962341,865.820312 700.321960,865.794678 700.681641,865.769043 
	C700.761292,890.422546 700.853821,915.075928 700.914124,939.729492 
	C700.937317,949.226685 700.887390,958.723938 700.759521,968.686707 
	C667.119385,969.356323 633.590576,969.560364 599.448730,969.610352 
	C598.380066,969.417603 597.924377,969.378906 597.468689,969.340210 
	C568.869202,969.293030 540.269653,969.242798 511.670105,969.218140 
	C511.035614,969.217590 510.400818,969.508972 509.213898,969.658936 
	C507.107483,969.769714 505.553314,969.885803 503.585602,969.944214 
	C501.784760,969.933716 500.397491,969.980713 499.010193,970.027771 
	C471.442169,969.949585 443.874054,969.892029 416.306244,969.764587 
	C413.172485,969.750061 410.040588,969.343079 406.492401,969.102600 
	C405.982117,958.795837 405.823425,948.504700 405.805267,938.213257 
	C405.763367,914.459229 405.789642,890.705139 405.862122,866.488159 
M491.357361,968.009766 
	C495.814545,967.686218 500.273560,967.059204 504.728577,967.086487 
	C544.331116,967.328491 583.932617,967.737244 623.535095,967.988159 
	C643.188721,968.112671 662.843933,968.045532 682.498108,967.971375 
	C685.458313,967.960205 688.429688,967.104248 691.372864,967.220825 
	C696.768982,967.434631 697.077209,964.177734 697.067871,960.109253 
	C697.003784,932.126770 697.035706,904.144165 697.035889,876.161560 
	C697.035889,875.162231 697.116699,874.153015 697.007690,873.165222 
	C696.496643,868.532715 694.608643,867.335999 690.104126,868.353821 
	C688.029907,868.822449 685.840820,868.948547 683.703735,868.949219 
	C594.259460,868.977356 504.815125,868.972595 415.370819,868.976074 
	C408.990814,868.976318 408.973480,868.990967 408.971436,875.408630 
	C408.962585,903.224670 408.964325,931.040649 408.963074,958.856689 
	C408.962677,967.440857 409.534760,968.005127 418.432404,968.007690 
	C442.417480,968.014587 466.402527,968.009888 491.357361,968.009766 
z"/>
<path fill="#1D2435" opacity="1.000000" stroke="none" 
	d="
M216.611755,426.039490 
	C217.001877,430.233582 216.997833,434.351379 216.997818,438.469208 
	C216.997070,671.974304 217.001266,905.479431 216.920059,1138.984497 
	C216.919373,1140.967285 215.767960,1142.949463 214.762421,1144.961304 
	C214.276840,1143.669067 214.100159,1142.347412 214.100128,1141.025879 
	C214.095627,904.286377 214.099091,667.546814 214.209671,430.807343 
	C214.210403,429.231964 212.210632,426.139069 216.611755,426.039490 
z"/>
<path fill="#373B46" opacity="1.000000" stroke="none" 
	d="
M35.414677,337.586914 
	C35.738316,336.978912 36.472771,336.214111 37.306339,336.083923 
	C38.770538,335.855225 40.295406,336.012543 41.794865,336.012543 
	C382.679474,336.012207 723.564087,336.010864 1064.448730,336.043549 
	C1066.539429,336.043732 1068.630127,336.518127 1070.881470,337.114685 
	C1069.554688,337.560089 1068.067383,337.751007 1066.579956,337.751068 
	C723.676147,337.763763 380.772369,337.763153 37.868565,337.760925 
	C37.202419,337.760925 36.536270,337.731537 35.414677,337.586914 
z"/>
<path fill="#1B2936" opacity="1.000000" stroke="none" 
	d="
M408.577637,32.203789 
	C408.999420,94.726372 409.002655,157.215103 408.993225,219.703842 
	C408.992615,223.805618 409.104431,227.924286 408.776093,232.003876 
	C408.511993,235.285172 406.262421,236.827240 402.993988,236.833527 
	C375.526459,236.886444 348.058899,236.967499 320.591370,236.964050 
	C315.528046,236.963425 313.002777,233.876053 313.001984,228.082230 
	C312.994537,173.258759 312.998199,118.435295 312.996765,63.611828 
	C312.996582,56.252972 312.842987,56.354820 305.498108,56.833954 
	C300.822388,57.138969 296.089783,56.571430 291.126160,56.066544 
	C299.483551,53.516941 308.097443,51.295948 317.329865,48.915470 
	C317.329865,110.857605 317.329865,172.219345 317.329865,233.965302 
	C346.900208,233.965302 375.959412,233.965302 405.692627,233.965302 
	C405.692627,231.999100 405.692596,230.057327 405.692627,228.115540 
	C405.693665,164.630081 405.684082,101.144623 405.743683,37.659218 
	C405.745605,35.632153 404.391418,32.679790 408.577637,32.203789 
z"/>
<path fill="#1A2434" opacity="1.000000" stroke="none" 
	d="
M499.093872,970.403442 
	C500.397491,969.980713 501.784760,969.933716 503.823914,970.223511 
	C505.946198,970.717285 507.416595,970.874268 508.887024,971.031250 
	C508.963531,972.689514 509.106995,974.347778 509.107117,976.006042 
	C509.118683,1135.258057 509.119324,1294.510010 509.120667,1453.761963 
	C509.120697,1456.207886 509.120667,1458.653809 509.120667,1461.625610 
	C504.813995,1460.508301 501.156281,1459.559326 497.224060,1458.351196 
	C498.630157,1457.894287 500.348450,1457.377441 501.982910,1457.570435 
	C504.692261,1457.890381 506.171875,1458.019775 506.132080,1454.262085 
	C505.636719,1407.489136 505.295654,1360.714233 505.053101,1313.939087 
	C505.015320,1306.652710 505.988129,1299.360840 505.942657,1292.074829 
	C505.737030,1259.127686 505.148590,1226.182617 505.044006,1193.235596 
	C504.881927,1142.172241 504.943573,1091.107910 505.046570,1040.044312 
	C505.069000,1028.923340 505.893402,1017.804443 505.935394,1006.683044 
	C505.978149,995.354614 505.511475,984.024170 505.274841,973.020569 
	C502.698761,972.073608 500.938141,971.426392 499.093872,970.403442 
z"/>
<path fill="#1D2736" opacity="1.000000" stroke="none" 
	d="
M1083.172119,1019.601074 
	C1082.352051,1014.437500 1081.105469,1008.867310 1081.088989,1003.293457 
	C1080.937744,952.170715 1081.001099,901.047302 1080.998901,849.924133 
	C1080.998535,841.798096 1080.212158,841.001099 1072.229980,841.000610 
	C1045.918945,840.998901 1019.608032,840.999146 993.297058,841.000305 
	C985.224182,841.000610 985.001038,841.227722 985.000916,849.546143 
	C985.000183,905.165527 985.018494,960.784851 984.951904,1016.404175 
	C984.948608,1019.144531 984.210388,1021.884033 983.773071,1024.909668 
	C982.644043,1020.504761 981.701599,1016.827698 980.396606,1013.080200 
	C980.034119,954.942688 980.034119,896.875671 980.034119,838.521851 
	C1014.964783,838.521851 1049.039185,838.521851 1083.384277,838.521851 
	C1083.547241,839.466492 1083.847534,840.396729 1083.848145,841.327026 
	C1083.880859,896.791382 1083.900269,952.255676 1083.873779,1007.720032 
	C1083.871948,1011.544312 1083.510254,1015.368530 1083.172119,1019.601074 
z"/>
<path fill="#182935" opacity="1.000000" stroke="none" 
	d="
M317.440918,434.572357 
	C316.549011,435.883453 315.355713,436.647400 315.120819,437.638458 
	C314.746613,439.217499 315.005585,440.947815 315.005585,442.614136 
	C315.004852,709.238037 315.006500,975.861938 314.980194,1242.485840 
	C314.979950,1245.000122 314.607605,1247.514404 314.408997,1250.028687 
	C313.941498,1250.000122 313.474030,1249.971436 313.006531,1249.942749 
	C313.006531,976.276367 313.006531,702.610046 313.337494,428.473785 
	C314.105530,428.006378 314.542572,428.008911 314.986511,428.307007 
	C315.093262,429.105194 315.193176,429.607819 315.293091,430.110443 
	C315.529816,430.031464 315.766510,429.952484 316.003235,429.873505 
	C315.672241,429.243744 315.341248,428.614014 315.007690,427.673096 
	C315.003723,426.947021 315.002350,426.532104 315.000977,426.117218 
	C315.879852,426.827698 317.351807,427.423096 317.516571,428.272125 
	C317.882141,430.156311 317.592194,432.167633 317.440918,434.572357 
z"/>
<path fill="#1A2434" opacity="1.000000" stroke="none" 
	d="
M508.989014,863.530151 
	C505.746155,864.436829 504.730072,862.948303 504.976807,859.971313 
	C505.400818,854.855591 505.946991,849.727234 505.955048,844.603455 
	C506.029205,797.432434 505.978851,750.261292 506.027649,703.090149 
	C506.032898,698.015503 506.755554,692.930115 506.579163,687.869446 
	C506.339600,680.996948 505.279724,674.150940 505.092834,667.279419 
	C504.953827,662.168335 505.899902,657.034424 505.892303,651.911377 
	C505.884186,646.454468 505.012939,640.996155 505.053955,635.542419 
	C505.277863,605.754944 505.779327,575.969360 505.937347,546.181763 
	C505.992371,535.814270 505.093018,525.443420 505.080627,515.073547 
	C505.069305,505.617828 505.935669,496.161133 505.926453,486.705353 
	C505.916473,476.501831 505.139404,466.300049 505.079651,456.095276 
	C505.039886,449.307800 505.807709,442.519012 505.938904,435.725525 
	C505.996552,432.740997 505.369080,429.743225 505.026550,426.411804 
	C505.750977,426.026520 506.501526,425.980835 507.718506,426.211182 
	C508.358734,426.758270 508.602173,426.931519 508.915222,427.006958 
	C508.980560,427.666016 509.103180,428.325043 509.103180,428.984100 
	C509.104523,573.680054 509.097351,718.376038 508.989014,863.530151 
z"/>
<path fill="#1A2434" opacity="1.000000" stroke="none" 
	d="
M411.565613,426.048401 
	C410.818268,427.074066 409.638306,428.024750 408.998779,428.540009 
	C408.998779,432.326019 408.998779,435.794098 408.998779,439.262177 
	C408.998383,573.535583 409.020020,707.808960 408.938477,842.082275 
	C408.933960,849.515991 408.073914,856.949097 407.192993,864.458374 
	C406.570618,864.263306 406.304993,864.085754 405.977020,864.001526 
	C405.900818,858.343628 405.759033,852.685791 405.758026,847.027893 
	C405.733246,708.706543 405.723419,570.385193 405.710938,432.063873 
	C405.710754,430.106415 405.710907,428.148956 405.710907,425.973480 
	C407.852936,425.973480 409.492950,425.973480 411.565613,426.048401 
z"/>
<path fill="#1D2736" opacity="1.000000" stroke="none" 
	d="
M993.211060,120.567490 
	C985.005920,121.212608 985.000610,121.216301 985.000366,129.912628 
	C984.999512,162.207336 985.067505,194.502335 984.921143,226.796387 
	C984.901123,231.222885 983.816772,235.644592 983.101318,240.994003 
	C954.620056,240.994003 925.598999,240.919647 896.579224,241.077194 
	C892.406738,241.099823 892.441711,238.064682 891.146973,235.096497 
	C890.995605,234.512405 890.990967,234.023590 891.298645,234.041321 
	C891.794922,233.977524 891.983521,233.896027 892.172119,233.814545 
	C893.980286,233.990555 895.788208,234.317490 897.596619,234.319931 
	C923.758606,234.355194 949.920715,234.350433 976.082764,234.338409 
	C977.366943,234.337814 978.651001,234.182449 980.404663,234.068710 
	C980.404663,194.247879 980.404663,154.704819 980.404663,114.241333 
	C985.103577,116.484894 989.052979,118.370598 993.211060,120.567490 
M904.627808,236.992981 
	C901.243347,236.992981 897.858948,236.992981 894.474487,236.992981 
	C894.488037,237.516479 894.501526,238.039993 894.515076,238.563492 
	C895.426453,238.708099 896.337646,238.978210 897.249146,238.979050 
	C923.033386,239.002808 948.817749,239.032288 974.601624,238.935898 
	C976.588928,238.928482 978.572815,238.003799 980.558350,237.505463 
	C980.466187,237.334610 980.374023,237.163773 980.281860,236.992920 
	C955.386536,236.992920 930.491272,236.992920 904.627808,236.992981 
z"/>
<path fill="#090F1D" opacity="1.000000" stroke="none" 
	d="
M597.438171,969.775085 
	C597.924377,969.378906 598.380066,969.417603 598.989563,969.633423 
	C599.098083,973.306274 599.013428,976.802002 599.013245,980.297729 
	C599.006592,1137.185425 598.992981,1294.073120 599.119446,1450.960693 
	C599.121704,1453.803833 600.806763,1456.645630 601.890015,1459.818604 
	C600.712891,1460.569824 599.352234,1460.990723 597.407654,1461.592163 
	C597.407654,1297.368774 597.407654,1133.789429 597.438171,969.775085 
z"/>
<path fill="#090F1D" opacity="1.000000" stroke="none" 
	d="
M598.927612,865.424011 
	C598.565796,865.663025 598.210815,865.616882 597.589966,865.629456 
	C597.345947,834.219910 597.388367,802.751587 597.385864,771.283325 
	C597.376770,657.730042 597.352600,544.176758 597.823853,430.289062 
	C598.540283,429.972656 598.767029,429.990601 598.993835,430.008575 
	C598.999329,574.360229 599.004822,718.711914 599.026245,863.532104 
	C599.006287,864.380005 598.970398,864.759460 598.927612,865.424011 
z"/>
<path fill="#0F1820" opacity="1.000000" stroke="none" 
	d="
M700.662354,1308.612793 
	C700.047363,1306.896484 699.061890,1304.835083 699.060181,1302.773071 
	C698.979675,1207.645874 698.985046,1112.518677 698.980591,1017.391479 
	C698.980103,1006.229431 699.030090,995.067078 698.943787,983.905701 
	C698.923462,981.277039 698.188171,978.643921 698.270142,976.028198 
	C698.321960,974.373169 699.278137,972.746399 700.202209,971.073120 
	C700.644165,974.363403 700.772217,977.687622 700.772217,981.011841 
	C700.772705,1090.097046 700.760803,1199.182251 700.662354,1308.612793 
z"/>
<path fill="#0F1820" opacity="1.000000" stroke="none" 
	d="
M700.734192,865.319031 
	C700.321960,865.794678 699.962341,865.820312 699.328918,865.832031 
	C699.030273,798.393616 698.997742,730.969238 698.983276,663.544800 
	C698.974060,620.592712 698.976807,577.640686 699.049011,534.688660 
	C699.052063,532.868774 699.810486,531.050171 700.607117,529.118286 
	C700.924011,534.165527 700.787598,539.325439 700.787170,544.485352 
	C700.777710,651.279907 700.783752,758.074463 700.734192,865.319031 
z"/>
<path fill="#182837" opacity="1.000000" stroke="none" 
	d="
M125.844978,232.529205 
	C124.274040,232.988403 122.799004,232.988403 120.926834,232.988403 
	C120.926834,195.979874 120.926834,158.899261 120.926834,121.618980 
	C118.863625,121.175423 117.135651,120.803940 115.149452,120.114014 
	C118.259071,118.094093 121.626907,116.392609 125.940872,114.213127 
	C125.940872,154.076950 125.940872,193.073486 125.844978,232.529205 
z"/>
<path fill="#101624" opacity="1.000000" stroke="none" 
	d="
M23.545612,426.144745 
	C24.006418,618.757690 24.013168,811.417358 23.998821,1004.077026 
	C23.998713,1005.549561 23.710646,1007.022034 23.232887,1008.768433 
	C22.824389,1007.051331 22.666328,1005.060364 22.666151,1003.069336 
	C22.649090,812.411255 22.642895,621.753174 22.656910,431.095123 
	C22.657030,429.460571 22.939751,427.826050 23.545612,426.144745 
z"/>
<path fill="#373B46" opacity="1.000000" stroke="none" 
	d="
M1080.346924,337.599304 
	C1080.617676,332.823273 1081.590210,328.204163 1081.842896,323.545990 
	C1082.037598,319.958191 1081.064575,316.321655 1081.059570,312.706177 
	C1080.998291,267.983032 1081.021362,223.259781 1081.017578,178.536560 
	C1081.016968,171.726685 1079.212158,169.518036 1072.584717,168.502014 
	C1072.953369,166.907501 1073.317383,165.333435 1073.828735,163.439728 
	C1074.139648,163.151367 1074.311646,163.159561 1074.465210,163.217194 
	C1081.514648,165.862488 1084.336060,170.123489 1084.250854,178.435272 
	C1083.723877,229.833176 1083.995972,281.239166 1083.960327,332.642426 
	C1083.958740,334.890472 1085.065186,338.107971 1080.346924,337.599304 
z"/>
<path fill="#1D2435" opacity="1.000000" stroke="none" 
	d="
M221.621979,76.667358 
	C221.974731,76.972343 222.011093,77.530151 221.851562,77.593361 
	C215.476318,80.118729 217.012833,85.631088 217.010544,90.496063 
	C216.989029,136.268463 217.025711,182.040924 216.912262,227.813065 
	C216.907272,229.830124 215.614319,231.843994 214.545898,233.951126 
	C214.143768,183.609055 214.200836,133.174835 213.976624,82.741867 
	C213.950684,76.908279 218.603973,78.429420 221.621979,76.667358 
z"/>
<path fill="#1B222C" opacity="1.000000" stroke="none" 
	d="
M1069.515137,426.043579 
	C1068.229614,426.409729 1066.481934,426.958221 1064.734131,426.958710 
	C915.522217,426.998077 766.310242,426.996063 617.098328,426.981354 
	C615.615356,426.981201 614.132324,426.773621 612.339844,426.389954 
	C613.191895,426.062744 614.353455,425.960968 615.515015,425.960938 
	C766.694336,425.959167 917.873657,425.964783 1069.515137,426.043579 
z"/>
<path fill="#1B222C" opacity="1.000000" stroke="none" 
	d="
M508.936401,231.829315 
	C508.214722,230.191086 507.067963,228.139404 507.064880,226.086014 
	C506.972137,163.997208 507.034119,101.908127 506.909760,39.819420 
	C506.900452,35.169678 505.685486,30.522348 504.980286,25.513660 
	C501.627136,25.168877 498.571228,24.854654 495.239075,24.228741 
	C499.406097,23.572872 503.849365,23.228697 509.044464,22.826283 
	C509.044464,92.639816 509.044464,162.027451 508.936401,231.829315 
z"/>
<path fill="#090F1D" opacity="1.000000" stroke="none" 
	d="
M598.677979,23.316401 
	C599.106079,44.943024 599.024475,66.558929 599.015320,88.174866 
	C598.995667,134.568695 599.021179,180.962524 598.985229,227.356323 
	C598.983826,229.107269 598.533691,230.857834 597.956543,232.763641 
	C597.541748,231.093307 597.395081,229.267929 597.394409,227.442490 
	C597.369873,160.947083 597.353210,94.451675 597.381958,27.956289 
	C597.382629,26.405977 597.916199,24.855890 598.677979,23.316401 
z"/>
<path fill="#0F1820" opacity="1.000000" stroke="none" 
	d="
M700.694214,232.496170 
	C700.067749,231.062027 699.058777,229.170227 699.056091,227.277023 
	C698.970642,166.494492 699.018921,105.711769 698.896362,44.929375 
	C698.888306,40.946323 697.685181,36.965687 697.028015,32.574883 
	C700.658020,31.786335 700.861084,33.956890 700.858093,36.827671 
	C700.789124,101.897682 700.791748,166.967773 700.694214,232.496170 
z"/>
<path fill="#1B222C" opacity="1.000000" stroke="none" 
	d="
M890.990967,234.023590 
	C890.990967,234.023590 890.995605,234.512405 890.997803,234.756836 
	C890.664307,232.943497 890.037781,230.886078 890.035461,228.827957 
	C889.982056,181.401779 889.996521,133.975540 889.998474,86.549301 
	C889.998535,84.592339 889.998535,82.635376 889.998535,80.424973 
	C885.725281,80.686790 881.995239,80.915329 877.173889,81.210739 
	C879.322144,79.998901 880.540222,79.311775 882.488220,78.212898 
	C881.065613,77.092812 880.096741,76.329933 879.086060,75.218803 
	C882.693176,75.957253 886.515747,76.683296 889.902405,78.314316 
	C891.194885,78.936737 892.133911,81.630096 892.141602,83.384521 
	C892.273926,113.322395 892.237549,143.261032 892.231934,173.199509 
	C892.228210,192.825699 892.214294,212.451904 891.816040,232.563477 
	C891.281799,233.373779 891.136353,233.698669 890.990967,234.023590 
z"/>
<path fill="#101624" opacity="1.000000" stroke="none" 
	d="
M789.006348,65.471268 
	C789.654663,67.310463 790.590454,69.593872 790.719666,71.922050 
	C790.863892,74.521461 790.043762,77.161278 790.041077,79.783905 
	C789.993347,125.998268 789.979797,172.212738 790.049377,218.427048 
	C790.056091,222.873535 790.732666,227.316132 790.921936,231.768021 
	C790.955078,232.548340 790.109009,233.366013 789.348022,234.084351 
	C788.997375,177.979935 788.967590,121.957588 789.006348,65.471268 
z"/>
<path fill="#101624" opacity="1.000000" stroke="none" 
	d="
M24.089079,173.957001 
	C24.051525,228.069519 24.013973,282.182037 23.954853,336.780365 
	C23.504143,336.169006 22.700741,335.072235 22.699554,333.974609 
	C22.640661,279.583221 22.649235,225.191803 22.668989,170.800369 
	C22.669224,170.156311 22.911236,169.512329 23.475246,169.053131 
	C23.969763,170.810959 24.029421,172.383972 24.089079,173.957001 
z"/>
<path fill="#373B46" opacity="1.000000" stroke="none" 
	d="
M62.981224,145.764267 
	C64.027435,147.315582 64.745483,148.936539 65.083549,149.699677 
	C58.870510,152.675003 53.513935,155.465240 47.971004,157.816071 
	C44.229244,159.403000 40.224724,160.370377 35.963211,161.447556 
	C44.610138,156.131439 53.631599,150.982666 62.981224,145.764267 
z"/>
<path fill="#1A2434" opacity="1.000000" stroke="none" 
	d="
M492.522278,426.036469 
	C491.744507,426.407654 490.504456,426.962769 489.263214,426.965454 
	C466.037323,427.015930 442.811279,427.003510 419.585266,426.985504 
	C418.937744,426.985016 418.290314,426.777405 417.333832,426.391479 
	C442.036346,426.065491 467.047882,426.014374 492.522278,426.036469 
z"/>
<path fill="#182837" opacity="1.000000" stroke="none" 
	d="
M109.521576,426.032776 
	C108.744286,426.405304 107.504868,426.962555 106.264214,426.965332 
	C83.369080,427.016235 60.473793,427.003662 37.578556,426.985321 
	C36.931454,426.984802 36.284519,426.773682 35.329941,426.383698 
	C59.701210,426.057556 84.380043,426.008484 109.521576,426.032776 
z"/>
<path fill="#1D2435" opacity="1.000000" stroke="none" 
	d="
M301.522522,426.033661 
	C300.745453,426.406128 299.506073,426.963776 298.265442,426.966522 
	C275.369568,427.017395 252.473557,427.004791 229.577591,426.986389 
	C228.930450,426.985870 228.283493,426.774780 227.328827,426.384552 
	C251.700684,426.058350 276.380157,426.009430 301.522522,426.033661 
z"/>
<path fill="#373B46" opacity="1.000000" stroke="none" 
	d="
M24.428017,173.907928 
	C24.029421,172.383972 23.969763,170.810959 23.861366,168.765808 
	C27.408609,166.083160 31.004587,163.872604 34.916473,161.561188 
	C33.622353,164.225555 33.949966,168.132385 29.545197,169.260895 
	C27.682074,169.738205 26.343790,172.264084 24.428017,173.907928 
z"/>
<path fill="#1D2736" opacity="1.000000" stroke="none" 
	d="
M1075.557861,1053.929932 
	C1071.672119,1050.309204 1072.035645,1048.093506 1076.768799,1047.046387 
	C1076.763794,1049.302612 1076.342285,1051.541382 1075.557861,1053.929932 
z"/>
<path fill="#1D2736" opacity="1.000000" stroke="none" 
	d="
M1009.531128,128.405914 
	C1006.157288,128.307861 1001.104370,131.452881 999.999512,124.379715 
	C1003.093445,125.345619 1006.189026,126.717934 1009.531128,128.405914 
z"/>
<path fill="#1D2435" opacity="1.000000" stroke="none" 
	d="
M314.581482,426.018738 
	C315.002350,426.532104 315.003723,426.947021 315.001709,427.681335 
	C314.998291,428.000793 314.979645,428.011444 314.979645,428.011475 
	C314.542572,428.008911 314.105530,428.006378 313.340942,428.005554 
	C311.724487,427.610413 310.435547,427.213562 309.075256,426.467407 
	C310.723267,426.052185 312.442627,425.986206 314.581482,426.018738 
z"/>
<path fill="#1E3243" opacity="1.000000" stroke="none" 
	d="
M125.850815,429.758423 
	C124.825073,430.295532 123.883324,430.508270 121.511360,431.044067 
	C123.124886,428.979889 124.014610,427.841644 124.951233,426.402527 
	C125.310356,427.212433 125.622574,428.323273 125.850815,429.758423 
z"/>
<path fill="#1E3243" opacity="1.000000" stroke="none" 
	d="
M509.002747,970.837402 
	C507.416595,970.874268 505.946198,970.717285 504.237457,970.281067 
	C505.553314,969.885803 507.107483,969.769714 508.890778,969.922852 
	C509.119904,970.192017 509.118500,970.643555 509.002747,970.837402 
z"/>
<path fill="#182935" opacity="1.000000" stroke="none" 
	d="
M317.639343,1254.456787 
	C316.956207,1254.656982 316.298187,1254.464844 315.320068,1254.136353 
	C315.000000,1254.000000 314.997559,1254.000000 314.997559,1254.000000 
	C315.496765,1253.023804 315.995972,1252.047729 316.859009,1251.023926 
	C317.370026,1252.005737 317.517242,1253.035034 317.639343,1254.456787 
z"/>
<path fill="#1D2736" opacity="1.000000" stroke="none" 
	d="
M1081.570312,1028.941162 
	C1081.270142,1027.864136 1081.332397,1026.629517 1081.649902,1025.204834 
	C1081.914185,1026.270996 1081.923340,1027.527344 1081.570312,1028.941162 
z"/>
<path fill="#101624" opacity="1.000000" stroke="none" 
	d="
M789.006226,55.056274 
	C789.881287,55.142841 790.666565,55.496250 791.451782,55.849655 
	C790.901367,56.227951 790.350891,56.606247 789.435669,56.989433 
	C789.019287,56.437252 788.967773,55.880188 789.006226,55.056274 
z"/>
<path fill="#1B222C" opacity="1.000000" stroke="none" 
	d="
M598.998535,429.667542 
	C598.767029,429.990601 598.540283,429.972656 597.976929,429.899323 
	C597.063049,427.650085 596.680725,425.579193 600.552368,425.995483 
	C600.325989,427.157715 599.664612,428.242126 598.998535,429.667542 
z"/>
<path fill="#1D2736" opacity="1.000000" stroke="none" 
	d="
M1080.845459,1034.515503 
	C1080.426025,1033.573120 1080.310059,1032.356567 1080.528076,1031.071777 
	C1080.957520,1032.082642 1081.053101,1033.162109 1080.845459,1034.515503 
z"/>
<path fill="#101624" opacity="1.000000" stroke="none" 
	d="
M791.094177,50.287212 
	C790.799622,51.048229 790.383667,51.490578 789.535645,52.096703 
	C789.726685,51.496502 790.349792,50.732525 791.094177,50.287212 
z"/>
<path fill="#1D2736" opacity="1.000000" stroke="none" 
	d="
M1079.689697,1038.056885 
	C1079.342163,1037.480957 1079.309082,1036.791626 1079.581055,1036.054321 
	C1079.925415,1036.652100 1079.964600,1037.297607 1079.689697,1038.056885 
z"/>
<path fill="#80B9D6" opacity="1.000000" stroke="none" 
	d="
M595.713867,866.127075 
	C595.475342,866.348267 594.880859,866.503723 594.110962,866.460510 
	C594.409668,866.195007 594.883789,866.128174 595.713867,866.127075 
z"/>
<path fill="#80B9D6" opacity="1.000000" stroke="none" 
	d="
M511.726013,866.098389 
	C511.450500,866.294800 510.832611,866.394287 510.089325,866.246826 
	C510.437164,866.000427 510.910431,866.000977 511.726013,866.098389 
z"/>
<path fill="#1D2736" opacity="1.000000" stroke="none" 
	d="
M1075.104980,1056.687012 
	C1074.790405,1056.417358 1074.667358,1055.841675 1074.776367,1055.132324 
	C1075.104492,1055.459473 1075.200439,1055.920166 1075.104980,1056.687012 
z"/>
<path fill="#29313E" opacity="1.000000" stroke="none" 
	d="
M405.872314,864.248535 
	C406.304993,864.085754 406.570618,864.263306 406.894226,864.745117 
	C406.843719,864.965149 406.672821,864.974304 406.245148,864.983948 
	C405.914825,864.821411 405.841217,864.658447 405.872314,864.248535 
z"/>
<path fill="#7C818A" opacity="1.000000" stroke="none" 
	d="
M891.298584,234.041306 
	C891.136353,233.698669 891.281799,233.373779 891.710571,233.021484 
	C891.993896,232.994080 892.281616,233.361191 892.226868,233.587860 
	C891.983521,233.896027 891.794922,233.977524 891.298584,234.041306 
z"/>
<path fill="#373B46" opacity="1.000000" stroke="none" 
	d="
M508.984955,426.705017 
	C508.602173,426.931519 508.358734,426.758270 508.090363,426.278931 
	C508.348755,426.181458 508.701721,426.292267 508.984955,426.705017 
z"/>
<path fill="#1D2435" opacity="1.000000" stroke="none" 
	d="
M304.744446,426.045441 
	C304.721527,426.214294 304.455780,426.315369 304.102081,426.261719 
	C304.176605,426.063934 304.339081,426.020813 304.744446,426.045441 
z"/>
<path fill="#182935" opacity="1.000000" stroke="none" 
	d="
M315.001221,1254.000000 
	C314.841705,1254.857666 314.681000,1255.715332 314.520325,1256.572876 
	C314.154480,1256.444458 313.788605,1256.315918 313.422760,1256.187378 
	C313.725159,1255.490723 314.027557,1254.794189 314.663757,1254.048828 
	C314.997559,1254.000000 315.000000,1254.000000 315.001221,1254.000000 
z"/>
<path fill="#1D2736" opacity="1.000000" stroke="none" 
	d="
M997.733887,128.357117 
	C997.991333,128.372070 998.131531,128.508209 998.271729,128.644363 
	C998.053345,128.589020 997.834961,128.533676 997.733887,128.357117 
z"/>
<path fill="#1D2736" opacity="1.000000" stroke="none" 
	d="
M1073.388428,1041.952393 
	C1073.787109,1041.708740 1074.184814,1041.710571 1074.580078,1041.741333 
	C1074.591431,1041.742310 1074.578979,1042.050049 1074.577637,1042.214844 
	C1074.180664,1042.210571 1073.783813,1042.206177 1073.388428,1041.952393 
z"/>
<path fill="#1A2434" opacity="1.000000" stroke="none" 
	d="
M499.078979,432.689148 
	C498.529602,432.720428 498.140411,432.593811 497.751221,432.467194 
	C497.858002,432.361725 497.988098,432.151031 498.067688,432.168640 
	C498.465454,432.256622 498.850006,432.404480 499.078979,432.689148 
z"/>
<path fill="#36A1DB" opacity="1.000000" stroke="none" 
	d="
M490.872498,968.009766 
	C466.402527,968.009888 442.417480,968.014587 418.432404,968.007690 
	C409.534760,968.005127 408.962677,967.440857 408.963074,958.856689 
	C408.964325,931.040649 408.962585,903.224670 408.971436,875.408630 
	C408.973480,868.990967 408.990814,868.976318 415.370819,868.976074 
	C504.815125,868.972595 594.259460,868.977356 683.703735,868.949219 
	C685.840820,868.948547 688.029907,868.822449 690.104126,868.353821 
	C694.608643,867.335999 696.496643,868.532715 697.007690,873.165222 
	C697.116699,874.153015 697.035889,875.162231 697.035889,876.161560 
	C697.035706,904.144165 697.003784,932.126770 697.067871,960.109253 
	C697.077209,964.177734 696.768982,967.434631 691.372864,967.220825 
	C688.429688,967.104248 685.458313,967.960205 682.498108,967.971375 
	C662.843933,968.045532 643.188721,968.112671 623.535095,967.988159 
	C583.932617,967.737244 544.331116,967.328491 504.728577,967.086487 
	C500.273560,967.059204 495.814545,967.686218 490.872498,968.009766 
z"/>
<path fill="#1E3243" opacity="1.000000" stroke="none" 
	d="
M315.004272,427.992523 
	C315.341248,428.614014 315.672241,429.243744 316.003235,429.873505 
	C315.766510,429.952484 315.529816,430.031464 315.293091,430.110443 
	C315.193176,429.607819 315.093262,429.105194 314.986511,428.307007 
	C314.979645,428.011444 314.998291,428.000793 315.004272,427.992523 
z"/>
<path fill="#1E3243" opacity="1.000000" stroke="none" 
	d="
M905.111938,236.992950 
	C930.491272,236.992920 955.386536,236.992920 980.281860,236.992920 
	C980.374023,237.163773 980.466187,237.334610 980.558350,237.505463 
	C978.572815,238.003799 976.588928,238.928482 974.601624,238.935898 
	C948.817749,239.032288 923.033386,239.002808 897.249146,238.979050 
	C896.337646,238.978210 895.426453,238.708099 894.515076,238.563492 
	C894.501526,238.039993 894.488037,237.516479 894.474487,236.992981 
	C897.858948,236.992981 901.243347,236.992981 905.111938,236.992950 
z"/>
</svg>